# Blender 4.0.2
# www.blender.org
mtllib corner.mtl
o C
v 1.000000 0.000000 1.000000
v 1.000000 2.490000 1.000000
v 1.000000 0.000000 -1.000000
v 1.000000 2.490000 -1.000000
v -1.000000 0.000000 -1.000000
v -1.000000 2.490000 -1.000000
v -1.000000 0.000000 1.000000
v -1.000000 2.490000 1.000000
vn -0.0000 -1.0000 -0.0000
vn -0.0000 1.0000 -0.0000
vn -0.0000 -0.0000 1.0000
vn -1.0000 -0.0000 -0.0000
vt 0.625000 0.500000
vt 0.625000 0.750000
vt 0.750000 0.750000
vt 0.750000 0.500000
vt 0.250000 0.500000
vt 0.250000 0.750000
vt 0.375000 0.750000
vt 0.375000 0.500000
vt 0.625000 0.375000
vt 0.375000 0.375000
vt 0.000000 0.000000
s 0
f 4/1/1 2/2/1 8/3/1 6/4/1
f 5/5/2 7/6/2 1/7/2 3/8/2
f 6/9/3 5/10/3 3/8/3 4/1/3
f 3/8/4 1/7/4 2/11/4 4/1/4
