# Blender 4.0.2
# www.blender.org
mtllib t.mtl
o t
v -1.000000 0.154855 1.000000
v -0.845145 0.000000 1.000000
v -0.845615 0.155042 1.000000
v -1.000000 2.335145 1.000000
v -0.845615 2.334959 1.000000
v -1.000000 1.245000 1.000000
v -1.000000 2.335145 0.845616
v -0.845615 0.155042 0.845616
v -0.845145 0.000000 0.845616
v -1.000000 1.245000 0.845616
v -0.845615 2.334959 0.845616
v -0.845145 2.490000 0.845616
v -1.000000 0.154855 0.845616
v 1.000000 0.000000 0.845145
v 1.000000 2.490000 0.845145
v 1.000000 2.335145 1.000000
v 1.000000 2.334959 0.845615
v 1.000000 2.490000 -0.000000
v 1.000000 0.000000 -0.000000
v 0.845615 2.335145 1.000000
v 0.845615 0.000000 0.845145
v 0.845615 0.000000 -0.000000
v 0.845615 2.334959 0.845615
v 0.845615 2.490000 0.845145
v 0.845615 0.000000 1.000000
v 0.845615 2.490000 -0.000000
v 0.845615 0.154855 0.845145
v 1.000000 0.154855 0.845145
v 0.845615 0.154855 1.000000
v 1.000000 0.154855 1.000000
v -0.845145 2.490000 1.000000
v 0.845615 2.490000 0.999529
v 0.000235 2.490000 0.845380
v 0.000235 0.000000 1.000000
v 0.000235 0.000000 0.845380
v 0.000235 2.490000 0.999765
v -1.000000 0.154855 -1.000000
v -0.845145 0.000000 -1.000000
v -0.845616 0.155042 -1.000000
v -1.000000 2.335145 -1.000000
v -0.845616 2.334959 -1.000000
v -1.000000 1.245000 -1.000000
v -1.000000 2.335145 -0.845615
v -0.845616 0.155042 -0.845615
v -0.845145 0.000000 -0.845615
v -1.000000 1.245000 -0.845615
v -0.845616 2.334959 -0.845616
v -0.845145 2.490000 -0.845616
v -1.000000 0.154855 -0.845616
v 1.000000 0.000000 -0.845145
v 1.000000 2.490000 -0.845145
v 1.000000 2.335145 -1.000000
v 1.000000 2.334959 -0.845616
v -0.845615 2.490000 0.000000
v -0.845615 0.000000 0.000000
v 0.845615 2.335145 -1.000000
v 0.845615 0.000000 -0.845145
v 0.845615 2.334959 -0.845616
v 0.845615 2.490000 -0.845145
v 0.845615 0.000000 -1.000000
v 0.845615 0.154855 -0.845145
v 1.000000 0.154855 -0.845145
v 0.845615 0.154855 -1.000000
v 1.000000 0.154855 -1.000000
v -0.845616 2.334959 -0.000000
v -1.000000 0.154855 -0.000000
v -1.000000 2.335145 -0.000000
v -0.845616 0.155042 -0.000000
v -1.000000 1.245000 -0.000000
v -0.845145 2.490000 -1.000000
v 0.845615 2.490000 -0.999529
v -0.000000 2.490000 -0.000000
v -0.000000 0.000000 0.000000
v 0.000235 2.490000 -0.845380
v 0.000235 0.000000 -1.000000
v 0.000235 0.000000 -0.845380
v 0.000235 2.490000 -0.999765
vn 1.0000 -0.0000 -0.0000
vn -0.0012 -1.0000 -0.0000
vn 1.0000 -0.0030 -0.0000
vn -0.0012 1.0000 -0.0000
vn 1.0000 0.0030 -0.0000
vn 1.0000 -0.0015 -0.0003
vn -0.0000 0.0002 -1.0000
vn -0.0000 -0.0030 -1.0000
vn -0.0000 1.0000 -0.0000
vn -0.0000 -1.0000 -0.0000
vn -1.0000 -0.0000 -0.0000
vn -0.0000 -0.0000 -1.0000
vn -0.0000 -0.0000 1.0000
vn 1.0000 0.0015 -0.0003
vn 1.0000 -0.0015 0.0003
vn -0.0000 0.0002 1.0000
vn -0.0000 -0.0030 1.0000
vn 1.0000 0.0015 0.0003
vt 0.468805 0.288897
vt 0.468805 0.076858
vt 0.438776 0.076858
vt 0.438776 0.288897
vt 0.468805 0.500937
vt 0.438776 0.500937
vt 0.438776 0.530966
vt 0.468805 0.530966
vt 0.438776 0.561122
vt 0.468805 0.561122
vt 0.468805 0.046829
vt 0.438776 0.046829
vt 0.468805 0.016673
vt 0.438776 0.016673
vt 0.633282 0.500937
vt 0.633282 0.288897
vt 0.633282 0.530966
vt 0.633282 0.561122
vt 0.633282 0.076858
vt 0.921860 0.048369
vt 0.892173 0.048371
vt 0.892214 0.467790
vt 0.921917 0.467811
vt 0.892185 0.497612
vt 0.921880 0.497642
vt 0.375709 0.939965
vt 0.211095 0.939965
vt 0.211095 0.970035
vt 0.375709 0.970035
vt 0.468885 0.775305
vt 0.633545 0.775259
vt 0.633545 0.610553
vt 0.468839 0.610644
vt 0.468930 0.970035
vt 0.633545 0.970035
vt 0.633545 0.939965
vt 0.468930 0.939965
vt 0.375755 0.775305
vt 0.211095 0.775259
vt 0.951621 0.467825
vt 0.951566 0.497601
vt 0.405872 0.775305
vt 0.405872 0.610644
vt 0.375801 0.610644
vt 0.951637 0.048369
vt 0.921859 0.018592
vt 0.892171 0.018593
vt 0.951637 0.018592
vt 0.862381 0.048380
vt 0.862512 0.467836
vt 0.981338 0.048370
vt 0.981322 0.467826
vt 0.633282 0.046829
vt 0.633282 0.016673
vt 0.438768 0.610644
vt 0.438814 0.775305
vt 0.438860 0.939965
vt 0.405872 0.939965
vt 0.211095 0.610553
vt 0.797759 0.288897
vt 0.827788 0.288897
vt 0.827788 0.076858
vt 0.797759 0.076858
vt 0.797759 0.500937
vt 0.797759 0.530966
vt 0.827788 0.530966
vt 0.827788 0.500937
vt 0.797759 0.561122
vt 0.827788 0.561122
vt 0.827788 0.046829
vt 0.797759 0.046829
vt 0.827788 0.016673
vt 0.797759 0.016673
vt 0.633282 0.076858
vt 0.921930 0.048369
vt 0.921872 0.467811
vt 0.951576 0.467790
vt 0.951617 0.048371
vt 0.921909 0.497642
vt 0.951605 0.497612
vt 0.046481 0.939965
vt 0.046481 0.970035
vt 0.798205 0.775305
vt 0.798251 0.610644
vt 0.798159 0.970035
vt 0.798159 0.939965
vt 0.046435 0.775305
vt 0.892168 0.467825
vt 0.892224 0.497601
vt 0.016318 0.775305
vt 0.046389 0.610644
vt 0.016318 0.610644
vt 0.892152 0.048369
vt 0.921930 0.018592
vt 0.951618 0.018593
vt 0.892152 0.018592
vt 0.981277 0.467836
vt 0.981408 0.048380
vt 0.862451 0.048370
vt 0.862467 0.467826
vt 0.633282 0.046829
vt 0.633282 0.016673
vt 0.828276 0.775305
vt 0.828321 0.610644
vt 0.828230 0.939965
vt 0.016318 0.939965
s 0
f 10/1/1 6/4/1 1/3/1 13/2/1
f 7/5/2 11/8/2 5/7/2 4/6/2
f 11/8/3 12/10/3 31/9/3 5/7/3
f 7/5/1 4/6/1 6/4/1 10/1/1
f 1/3/4 3/12/4 8/11/4 13/2/4
f 3/12/5 2/14/5 9/13/5 8/11/5
f 67/15/1 7/5/1 10/1/1 69/16/1
f 65/17/6 54/18/6 12/10/6 11/8/6
f 67/15/2 65/17/2 11/8/2 7/5/2
f 69/16/1 10/1/1 13/2/1 66/19/1
f 27/20/7 23/23/7 17/22/7 28/21/7
f 23/23/8 24/25/8 15/24/8 17/22/8
f 21/26/9 14/29/9 19/28/9 22/27/9
f 33/30/10 12/33/10 54/32/10 72/31/10
f 15/34/10 24/37/10 26/36/10 18/35/10
f 35/38/9 21/26/9 22/27/9 73/39/9
f 20/40/11 32/41/11 24/25/11 23/23/11
f 34/42/9 35/38/9 9/44/9 2/43/9
f 29/45/11 20/40/11 23/23/11 27/20/11
f 21/46/12 27/20/12 28/21/12 14/47/12
f 25/48/11 29/45/11 27/20/11 21/46/11
f 28/21/1 17/22/1 16/50/1 30/49/1
f 30/51/13 16/52/13 20/40/13 29/45/13
f 13/2/4 8/11/4 68/53/4 66/19/4
f 8/11/14 9/13/14 55/54/14 68/53/14
f 33/30/10 36/56/10 31/55/10 12/33/10
f 24/37/10 32/57/10 36/56/10 33/30/10
f 25/58/9 21/26/9 35/38/9 34/42/9
f 9/44/9 35/38/9 73/39/9 55/59/9
f 24/37/10 33/30/10 72/31/10 26/36/10
f 46/60/1 49/63/1 37/62/1 42/61/1
f 43/64/2 40/67/2 41/66/2 47/65/2
f 47/65/3 41/66/3 70/69/3 48/68/3
f 43/64/1 46/60/1 42/61/1 40/67/1
f 37/62/4 49/63/4 44/71/4 39/70/4
f 39/70/5 44/71/5 45/73/5 38/72/5
f 67/15/1 69/16/1 46/60/1 43/64/1
f 65/17/15 47/65/15 48/68/15 54/18/15
f 67/15/2 43/64/2 47/65/2 65/17/2
f 69/16/1 66/74/1 49/63/1 46/60/1
f 61/75/16 62/78/16 53/77/16 58/76/16
f 58/76/17 53/77/17 51/80/17 59/79/17
f 57/81/9 22/27/9 19/28/9 50/82/9
f 74/83/10 72/31/10 54/32/10 48/84/10
f 51/85/10 18/35/10 26/36/10 59/86/10
f 76/87/9 73/39/9 22/27/9 57/81/9
f 56/88/11 58/76/11 59/79/11 71/89/11
f 75/90/9 38/92/9 45/91/9 76/87/9
f 63/93/11 61/75/11 58/76/11 56/88/11
f 57/94/13 50/95/13 62/78/13 61/75/13
f 60/96/11 57/94/11 61/75/11 63/93/11
f 62/78/1 64/98/1 52/97/1 53/77/1
f 64/99/12 63/93/12 56/88/12 52/100/12
f 49/63/4 66/74/4 68/101/4 44/71/4
f 44/71/18 68/101/18 55/102/18 45/73/18
f 74/83/10 48/84/10 70/104/10 77/103/10
f 59/86/10 74/83/10 77/103/10 71/105/10
f 60/106/9 75/90/9 76/87/9 57/81/9
f 45/91/9 55/59/9 73/39/9 76/87/9
f 59/86/10 26/36/10 72/31/10 74/83/10
