# Blender 4.0.2
# www.blender.org
mtllib arrows_r.mtl
o arrows_r
v 0.085602 1.329537 -0.939114
v 0.073868 1.317810 -1.720913
v 0.097336 1.317810 -1.720913
v 0.097336 1.341266 -1.720913
v 0.073868 1.341267 -1.720913
v 0.066712 1.310657 -1.005816
v 0.104492 1.310657 -1.005816
v 0.104492 1.348417 -1.005816
v 0.066712 1.348419 -1.005816
v 0.074078 1.318019 -0.980000
v 0.097126 1.318019 -0.980000
v 0.097126 1.341055 -0.980000
v 0.074078 1.341057 -0.980000
v 0.046371 1.290326 -1.042589
v 0.124833 1.290326 -1.042589
v 0.124833 1.368747 -1.042589
v 0.046371 1.368751 -1.042589
v 0.085602 1.335065 -0.980000
v 0.085602 1.348354 -1.042589
v 0.085602 1.338598 -1.005816
v 0.085602 1.341267 -1.720913
v 0.091132 1.329538 -0.980000
v 0.104428 1.329537 -1.042589
v 0.094667 1.329537 -1.005816
v 0.097336 1.329538 -1.720913
v 0.085602 1.324010 -0.980000
v 0.085602 1.310721 -1.042589
v 0.085602 1.320477 -1.005816
v 0.085602 1.317810 -1.720913
v 0.080072 1.329538 -0.980000
v 0.066776 1.329538 -1.042589
v 0.076537 1.329538 -1.005816
v 0.073868 1.329539 -1.720913
v 0.097336 1.317810 -1.034608
v 0.073868 1.317810 -1.034608
v 0.097336 1.341266 -1.034608
v 0.073868 1.341267 -1.034608
v 0.085602 1.341267 -1.034608
v 0.097336 1.329538 -1.034608
v 0.085602 1.317810 -1.034608
v 0.073868 1.329539 -1.034608
v 0.085602 1.329538 -1.720913
v 0.423848 1.329528 -0.939114
v 0.412114 1.317801 -1.720913
v 0.435582 1.317801 -1.720913
v 0.435582 1.341256 -1.720913
v 0.412114 1.341258 -1.720913
v 0.404958 1.310648 -1.005816
v 0.442738 1.310648 -1.005816
v 0.442738 1.348407 -1.005816
v 0.404958 1.348410 -1.005816
v 0.412324 1.318010 -0.980000
v 0.435373 1.318010 -0.980000
v 0.435372 1.341046 -0.980000
v 0.412324 1.341048 -0.980000
v 0.384617 1.290317 -1.042590
v 0.463079 1.290317 -1.042590
v 0.463079 1.368737 -1.042590
v 0.384617 1.368742 -1.042590
v 0.423848 1.335056 -0.980000
v 0.423848 1.348344 -1.042590
v 0.423848 1.338588 -1.005816
v 0.423848 1.341257 -1.720913
v 0.429378 1.329528 -0.980000
v 0.442674 1.329527 -1.042590
v 0.432913 1.329528 -1.005816
v 0.435582 1.329529 -1.720913
v 0.423848 1.324001 -0.980000
v 0.423848 1.310712 -1.042590
v 0.423848 1.320468 -1.005816
v 0.423848 1.317801 -1.720913
v 0.418318 1.329528 -0.980000
v 0.405022 1.329529 -1.042590
v 0.414784 1.329528 -1.005816
v 0.412114 1.329529 -1.720913
v 0.435582 1.317801 -1.034608
v 0.412114 1.317801 -1.034608
v 0.435582 1.341256 -1.034608
v 0.412114 1.341258 -1.034608
v 0.423848 1.341257 -1.034608
v 0.435582 1.329529 -1.034608
v 0.423848 1.317801 -1.034608
v 0.412114 1.329529 -1.034608
v 0.423848 1.329529 -1.720913
v 0.762094 1.329519 -0.939114
v 0.750360 1.317791 -1.720913
v 0.773828 1.317791 -1.720913
v 0.773828 1.341247 -1.720913
v 0.750360 1.341248 -1.720913
v 0.743205 1.310638 -1.005817
v 0.780984 1.310638 -1.005817
v 0.780984 1.348398 -1.005817
v 0.743204 1.348400 -1.005817
v 0.750570 1.318000 -0.980000
v 0.773619 1.318000 -0.980000
v 0.773619 1.341037 -0.980000
v 0.750570 1.341038 -0.980000
v 0.722863 1.290307 -1.042590
v 0.801326 1.290307 -1.042590
v 0.801326 1.368728 -1.042590
v 0.722863 1.368732 -1.042590
v 0.762094 1.335046 -0.980000
v 0.762094 1.348335 -1.042590
v 0.762094 1.338579 -1.005817
v 0.762094 1.341248 -1.720913
v 0.767625 1.329519 -0.980000
v 0.780920 1.329518 -1.042590
v 0.771159 1.329518 -1.005817
v 0.773828 1.329519 -1.720913
v 0.762094 1.323991 -0.980000
v 0.762095 1.310702 -1.042590
v 0.762094 1.320459 -1.005817
v 0.762094 1.317791 -1.720913
v 0.756564 1.329519 -0.980000
v 0.743269 1.329519 -1.042590
v 0.753030 1.329519 -1.005817
v 0.750360 1.329520 -1.720913
v 0.773829 1.317791 -1.034609
v 0.750361 1.317791 -1.034609
v 0.773829 1.341247 -1.034609
v 0.750361 1.341248 -1.034609
v 0.762095 1.341248 -1.034609
v 0.773829 1.329519 -1.034609
v 0.762095 1.317791 -1.034609
v 0.750361 1.329520 -1.034609
v 0.762094 1.329520 -1.720913
v -0.252644 1.329533 -0.939114
v -0.264378 1.317805 -1.720913
v -0.240910 1.317805 -1.720913
v -0.240910 1.341261 -1.720913
v -0.264378 1.341262 -1.720913
v -0.271534 1.310652 -1.005816
v -0.233754 1.310652 -1.005816
v -0.233754 1.348412 -1.005816
v -0.271534 1.348414 -1.005816
v -0.264168 1.318014 -0.980000
v -0.241120 1.318014 -0.980000
v -0.241120 1.341051 -0.980000
v -0.264169 1.341052 -0.980000
v -0.291875 1.290321 -1.042589
v -0.213413 1.290321 -1.042589
v -0.213413 1.368742 -1.042589
v -0.291875 1.368746 -1.042589
v -0.252644 1.335060 -0.980000
v -0.252644 1.348349 -1.042589
v -0.252644 1.338593 -1.005816
v -0.252644 1.341262 -1.720913
v -0.247114 1.329533 -0.980000
v -0.233818 1.329532 -1.042589
v -0.243579 1.329532 -1.005816
v -0.240910 1.329533 -1.720913
v -0.252644 1.324005 -0.980000
v -0.252644 1.310716 -1.042589
v -0.252644 1.320472 -1.005816
v -0.252644 1.317805 -1.720913
v -0.258174 1.329533 -0.980000
v -0.271470 1.329533 -1.042589
v -0.261709 1.329533 -1.005816
v -0.264378 1.329534 -1.720913
v -0.240910 1.317805 -1.034608
v -0.264378 1.317805 -1.034608
v -0.240910 1.341261 -1.034608
v -0.264378 1.341262 -1.034608
v -0.252644 1.341262 -1.034608
v -0.240910 1.329533 -1.034608
v -0.252644 1.317805 -1.034608
v -0.264378 1.329534 -1.034608
v -0.252644 1.329533 -1.720913
v -0.590890 1.329523 -0.939113
v -0.602624 1.317796 -1.720912
v -0.579156 1.317796 -1.720912
v -0.579156 1.341251 -1.720912
v -0.602624 1.341253 -1.720912
v -0.609780 1.310643 -1.005816
v -0.572000 1.310643 -1.005816
v -0.572000 1.348403 -1.005816
v -0.609780 1.348405 -1.005816
v -0.602414 1.318005 -0.980000
v -0.579365 1.318005 -0.980000
v -0.579366 1.341041 -0.980000
v -0.602414 1.341043 -0.980000
v -0.630121 1.290312 -1.042589
v -0.551659 1.290312 -1.042589
v -0.551659 1.368732 -1.042589
v -0.630121 1.368737 -1.042589
v -0.590890 1.335051 -0.980000
v -0.590890 1.348340 -1.042589
v -0.590890 1.338583 -1.005816
v -0.590890 1.341252 -1.720912
v -0.585360 1.329523 -0.980000
v -0.572064 1.329523 -1.042589
v -0.581825 1.329523 -1.005816
v -0.579156 1.329524 -1.720912
v -0.590890 1.323996 -0.980000
v -0.590890 1.310707 -1.042589
v -0.590890 1.320463 -1.005816
v -0.590890 1.317796 -1.720912
v -0.596420 1.329524 -0.980000
v -0.609716 1.329524 -1.042589
v -0.599954 1.329524 -1.005816
v -0.602624 1.329524 -1.720912
v -0.579156 1.317796 -1.034608
v -0.602624 1.317796 -1.034608
v -0.579156 1.341251 -1.034608
v -0.602624 1.341253 -1.034608
v -0.590890 1.341252 -1.034608
v -0.579156 1.329524 -1.034608
v -0.590890 1.317796 -1.034608
v -0.602624 1.329524 -1.034608
v -0.590890 1.329524 -1.720912
vn 0.4580 -0.8809 0.1191
vn 0.8807 0.4584 0.1191
vn -0.8808 -0.4583 0.1191
vn -0.4579 0.8810 0.1191
vn -0.4490 -0.8637 0.2291
vn 0.8635 -0.4494 0.2292
vn -0.8635 0.4493 0.2292
vn 0.4490 0.8636 0.2291
vn -0.4579 -0.8808 0.1205
vn 0.8806 -0.4583 0.1206
vn -0.8806 0.4583 0.1206
vn 0.4579 0.8808 0.1205
vn -0.0000 -1.0000 -0.0000
vn 1.0000 -0.0000 -0.0000
vn -1.0000 -0.0000 -0.0000
vn 0.0001 1.0000 -0.0000
vn -0.4579 0.8808 0.1205
vn -0.4490 0.8637 0.2291
vn 0.8806 0.4583 0.1206
vn 0.8635 0.4493 0.2292
vn 0.4579 -0.8808 0.1205
vn 0.4490 -0.8637 0.2291
vn -0.8806 -0.4582 0.1206
vn -0.8635 -0.4493 0.2292
vn 0.8808 -0.4583 0.1191
vn -0.4580 -0.8810 0.1191
vn -0.8808 0.4583 0.1191
vn 0.4580 0.8809 0.1191
vn 0.5470 -0.2191 -0.8080
vn 0.2190 0.5471 -0.8079
vn -0.5470 0.2191 -0.8080
vn -0.2190 -0.5472 -0.8078
vn 0.2189 -0.5472 -0.8079
vn 0.5470 0.2191 -0.8080
vn -0.5470 -0.2191 -0.8080
vn -0.2190 0.5471 -0.8079
vn -0.0000 -0.0000 -1.0000
vn 0.4580 -0.8810 0.1191
vn 0.8808 0.4583 0.1191
vn -0.4578 0.8808 0.1205
vn -0.4489 0.8637 0.2291
vn 0.8808 -0.4584 0.1191
vn -0.2190 0.5472 -0.8079
vn 0.8808 0.4584 0.1191
vn -0.8806 0.4582 0.1206
vn 0.2190 0.5472 -0.8079
vn -0.0000 1.0000 -0.0000
vn 0.8807 -0.4584 0.1191
vt 0.862210 0.535225
vt 0.867156 0.517667
vt 0.862210 0.517667
vt 0.857263 0.517667
vt 0.862210 0.517667
vt 0.857264 0.517667
vt 0.862210 0.506581
vt 0.862210 0.490789
vt 0.879049 0.490789
vt 0.870318 0.506581
vt 0.862210 0.506581
vt 0.862210 0.490789
vt 0.845372 0.490789
vt 0.854102 0.506581
vt 0.862210 0.506581
vt 0.862210 0.490789
vt 0.845370 0.490789
vt 0.854101 0.506581
vt 0.843027 0.470317
vt 0.848063 0.470317
vt 0.848063 0.190769
vt 0.843027 0.190769
vt 0.843027 0.470317
vt 0.843027 0.190769
vt 0.843027 0.470317
vt 0.837990 0.470317
vt 0.837990 0.190769
vt 0.843027 0.190769
vt 0.837991 0.470317
vt 0.837991 0.190769
vt 0.862209 0.479036
vt 0.867246 0.479036
vt 0.862210 0.479036
vt 0.862210 0.479036
vt 0.857173 0.479036
vt 0.857173 0.479036
vt 0.843027 0.161703
s 0
usemtl test_normal
f 1/1/1 10/2/1 26/3/1
f 1/1/2 11/2/2 22/3/2
f 1/1/3 13/4/3 30/5/3
f 1/1/4 12/6/4 18/3/4
f 28/7/5 27/8/5 15/9/5 7/10/5
f 24/11/6 23/12/6 16/13/6 8/14/6
f 32/15/7 31/16/7 14/9/7 6/10/7
f 20/7/8 19/8/8 17/17/8 9/18/8
f 28/7/9 7/10/9 11/2/9 26/3/9
f 24/11/10 8/14/10 12/6/10 22/3/10
f 32/15/11 6/10/11 10/2/11 30/5/11
f 20/7/12 9/18/12 13/4/12 18/3/12
f 40/19/13 35/20/13 2/21/13 29/22/13
f 39/23/14 34/20/14 3/21/14 25/24/14
f 41/25/15 37/26/15 5/27/15 33/28/15
f 38/19/16 36/29/16 4/30/16 21/22/16
f 37/26/16 38/19/16 21/22/16 5/27/16
f 8/14/17 20/7/17 18/3/17 12/6/17
f 8/14/18 16/13/18 19/8/18 20/7/18
f 36/29/14 39/23/14 25/24/14 4/30/14
f 7/10/19 24/11/19 22/3/19 11/2/19
f 7/10/20 15/9/20 23/12/20 24/11/20
f 34/20/13 40/19/13 29/22/13 3/21/13
f 6/10/21 28/7/21 26/3/21 10/2/21
f 6/10/22 14/9/22 27/8/22 28/7/22
f 35/20/15 41/25/15 33/28/15 2/21/15
f 9/18/23 32/15/23 30/5/23 13/4/23
f 9/18/24 17/17/24 31/16/24 32/15/24
f 12/6/25 1/1/25 22/3/25
f 11/2/26 1/1/26 26/3/26
f 10/2/27 1/1/27 30/5/27
f 13/4/28 1/1/28 18/3/28
f 14/9/29 31/16/29 41/31/29 35/32/29
f 15/9/30 27/8/30 40/33/30 34/32/30
f 16/13/31 23/12/31 39/34/31 36/35/31
f 17/17/32 19/8/32 38/33/32 37/36/32
f 19/8/33 16/13/33 36/35/33 38/33/33
f 31/16/34 17/17/34 37/36/34 41/31/34
f 23/12/35 15/9/35 34/32/35 39/34/35
f 27/8/36 14/9/36 35/32/36 40/33/36
f 29/22/37 2/21/37 42/37/37
f 2/21/37 33/28/37 42/37/37
f 5/27/37 21/22/37 42/37/37
f 25/24/37 3/21/37 42/37/37
f 21/22/37 4/30/37 42/37/37
f 33/28/37 5/27/37 42/37/37
f 4/30/37 25/24/37 42/37/37
f 3/21/37 29/22/37 42/37/37
f 43/1/38 52/2/38 68/3/38
f 43/1/39 53/2/39 64/3/39
f 43/1/3 55/4/3 72/5/3
f 43/1/4 54/6/4 60/3/4
f 70/7/5 69/8/5 57/9/5 49/10/5
f 66/11/6 65/12/6 58/13/6 50/14/6
f 74/15/7 73/16/7 56/9/7 48/10/7
f 62/7/8 61/8/8 59/17/8 51/18/8
f 70/7/9 49/10/9 53/2/9 68/3/9
f 66/11/10 50/14/10 54/6/10 64/3/10
f 74/15/11 48/10/11 52/2/11 72/5/11
f 62/7/12 51/18/12 55/4/12 60/3/12
f 82/19/13 77/20/13 44/21/13 71/22/13
f 81/23/14 76/20/14 45/21/14 67/24/14
f 83/25/15 79/26/15 47/27/15 75/28/15
f 80/19/16 78/29/16 46/30/16 63/22/16
f 79/26/16 80/19/16 63/22/16 47/27/16
f 50/14/40 62/7/40 60/3/40 54/6/40
f 50/14/41 58/13/41 61/8/41 62/7/41
f 78/29/14 81/23/14 67/24/14 46/30/14
f 49/10/19 66/11/19 64/3/19 53/2/19
f 49/10/20 57/9/20 65/12/20 66/11/20
f 76/20/13 82/19/13 71/22/13 45/21/13
f 48/10/21 70/7/21 68/3/21 52/2/21
f 48/10/22 56/9/22 69/8/22 70/7/22
f 77/20/15 83/25/15 75/28/15 44/21/15
f 51/18/23 74/15/23 72/5/23 55/4/23
f 51/18/24 59/17/24 73/16/24 74/15/24
f 54/6/42 43/1/42 64/3/42
f 53/2/26 43/1/26 68/3/26
f 52/2/27 43/1/27 72/5/27
f 55/4/28 43/1/28 60/3/28
f 56/9/29 73/16/29 83/31/29 77/32/29
f 57/9/30 69/8/30 82/33/30 76/32/30
f 58/13/31 65/12/31 81/34/31 78/35/31
f 59/17/32 61/8/32 80/33/32 79/36/32
f 61/8/33 58/13/33 78/35/33 80/33/33
f 73/16/34 59/17/34 79/36/34 83/31/34
f 65/12/35 57/9/35 76/32/35 81/34/35
f 69/8/43 56/9/43 77/32/43 82/33/43
f 71/22/37 44/21/37 84/37/37
f 44/21/37 75/28/37 84/37/37
f 47/27/37 63/22/37 84/37/37
f 67/24/37 45/21/37 84/37/37
f 63/22/37 46/30/37 84/37/37
f 75/28/37 47/27/37 84/37/37
f 46/30/37 67/24/37 84/37/37
f 45/21/37 71/22/37 84/37/37
f 85/1/38 94/2/38 110/3/38
f 85/1/44 95/2/44 106/3/44
f 85/1/3 97/4/3 114/5/3
f 85/1/4 96/6/4 102/3/4
f 112/7/5 111/8/5 99/9/5 91/10/5
f 108/11/6 107/12/6 100/13/6 92/14/6
f 116/15/7 115/16/7 98/9/7 90/10/7
f 104/7/8 103/8/8 101/17/8 93/18/8
f 112/7/9 91/10/9 95/2/9 110/3/9
f 108/11/10 92/14/10 96/6/10 106/3/10
f 116/15/45 90/10/45 94/2/45 114/5/45
f 104/7/12 93/18/12 97/4/12 102/3/12
f 124/19/13 119/20/13 86/21/13 113/22/13
f 123/23/14 118/20/14 87/21/14 109/24/14
f 125/25/15 121/26/15 89/27/15 117/28/15
f 122/19/16 120/29/16 88/30/16 105/22/16
f 121/26/16 122/19/16 105/22/16 89/27/16
f 92/14/40 104/7/40 102/3/40 96/6/40
f 92/14/41 100/13/41 103/8/41 104/7/41
f 120/29/14 123/23/14 109/24/14 88/30/14
f 91/10/19 108/11/19 106/3/19 95/2/19
f 91/10/20 99/9/20 107/12/20 108/11/20
f 118/20/13 124/19/13 113/22/13 87/21/13
f 90/10/21 112/7/21 110/3/21 94/2/21
f 90/10/22 98/9/22 111/8/22 112/7/22
f 119/20/15 125/25/15 117/28/15 86/21/15
f 93/18/23 116/15/23 114/5/23 97/4/23
f 93/18/24 101/17/24 115/16/24 116/15/24
f 96/6/42 85/1/42 106/3/42
f 95/2/26 85/1/26 110/3/26
f 94/2/27 85/1/27 114/5/27
f 97/4/28 85/1/28 102/3/28
f 98/9/29 115/16/29 125/31/29 119/32/29
f 99/9/46 111/8/46 124/33/46 118/32/46
f 100/13/31 107/12/31 123/34/31 120/35/31
f 101/17/32 103/8/32 122/33/32 121/36/32
f 103/8/33 100/13/33 120/35/33 122/33/33
f 115/16/34 101/17/34 121/36/34 125/31/34
f 107/12/35 99/9/35 118/32/35 123/34/35
f 111/8/36 98/9/36 119/32/36 124/33/36
f 113/22/37 86/21/37 126/37/37
f 86/21/37 117/28/37 126/37/37
f 89/27/37 105/22/37 126/37/37
f 109/24/37 87/21/37 126/37/37
f 105/22/37 88/30/37 126/37/37
f 117/28/37 89/27/37 126/37/37
f 88/30/37 109/24/37 126/37/37
f 87/21/37 113/22/37 126/37/37
f 127/1/38 136/2/38 152/3/38
f 127/1/39 137/2/39 148/3/39
f 127/1/3 139/4/3 156/5/3
f 127/1/4 138/6/4 144/3/4
f 154/7/5 153/8/5 141/9/5 133/10/5
f 150/11/6 149/12/6 142/13/6 134/14/6
f 158/15/7 157/16/7 140/9/7 132/10/7
f 146/7/8 145/8/8 143/17/8 135/18/8
f 154/7/9 133/10/9 137/2/9 152/3/9
f 150/11/10 134/14/10 138/6/10 148/3/10
f 158/15/45 132/10/45 136/2/45 156/5/45
f 146/7/12 135/18/12 139/4/12 144/3/12
f 166/19/13 161/20/13 128/21/13 155/22/13
f 165/23/14 160/20/14 129/21/14 151/24/14
f 167/25/15 163/26/15 131/27/15 159/28/15
f 164/19/16 162/29/16 130/30/16 147/22/16
f 163/26/47 164/19/47 147/22/47 131/27/47
f 134/14/17 146/7/17 144/3/17 138/6/17
f 134/14/41 142/13/41 145/8/41 146/7/41
f 162/29/14 165/23/14 151/24/14 130/30/14
f 133/10/19 150/11/19 148/3/19 137/2/19
f 133/10/20 141/9/20 149/12/20 150/11/20
f 160/20/13 166/19/13 155/22/13 129/21/13
f 132/10/21 154/7/21 152/3/21 136/2/21
f 132/10/22 140/9/22 153/8/22 154/7/22
f 161/20/15 167/25/15 159/28/15 128/21/15
f 135/18/23 158/15/23 156/5/23 139/4/23
f 135/18/24 143/17/24 157/16/24 158/15/24
f 138/6/48 127/1/48 148/3/48
f 137/2/26 127/1/26 152/3/26
f 136/2/27 127/1/27 156/5/27
f 139/4/28 127/1/28 144/3/28
f 140/9/29 157/16/29 167/31/29 161/32/29
f 141/9/46 153/8/46 166/33/46 160/32/46
f 142/13/31 149/12/31 165/34/31 162/35/31
f 143/17/32 145/8/32 164/33/32 163/36/32
f 145/8/33 142/13/33 162/35/33 164/33/33
f 157/16/34 143/17/34 163/36/34 167/31/34
f 149/12/35 141/9/35 160/32/35 165/34/35
f 153/8/36 140/9/36 161/32/36 166/33/36
f 155/22/37 128/21/37 168/37/37
f 128/21/37 159/28/37 168/37/37
f 131/27/37 147/22/37 168/37/37
f 151/24/37 129/21/37 168/37/37
f 147/22/37 130/30/37 168/37/37
f 159/28/37 131/27/37 168/37/37
f 130/30/37 151/24/37 168/37/37
f 129/21/37 155/22/37 168/37/37
f 169/1/1 178/2/1 194/3/1
f 169/1/44 179/2/44 190/3/44
f 169/1/3 181/4/3 198/5/3
f 169/1/4 180/6/4 186/3/4
f 196/7/5 195/8/5 183/9/5 175/10/5
f 192/11/6 191/12/6 184/13/6 176/14/6
f 200/15/7 199/16/7 182/9/7 174/10/7
f 188/7/8 187/8/8 185/17/8 177/18/8
f 196/7/9 175/10/9 179/2/9 194/3/9
f 192/11/10 176/14/10 180/6/10 190/3/10
f 200/15/45 174/10/45 178/2/45 198/5/45
f 188/7/12 177/18/12 181/4/12 186/3/12
f 208/19/13 203/20/13 170/21/13 197/22/13
f 207/23/14 202/20/14 171/21/14 193/24/14
f 209/25/15 205/26/15 173/27/15 201/28/15
f 206/19/16 204/29/16 172/30/16 189/22/16
f 205/26/16 206/19/16 189/22/16 173/27/16
f 176/14/17 188/7/17 186/3/17 180/6/17
f 176/14/41 184/13/41 187/8/41 188/7/41
f 204/29/14 207/23/14 193/24/14 172/30/14
f 175/10/19 192/11/19 190/3/19 179/2/19
f 175/10/20 183/9/20 191/12/20 192/11/20
f 202/20/13 208/19/13 197/22/13 171/21/13
f 174/10/21 196/7/21 194/3/21 178/2/21
f 174/10/22 182/9/22 195/8/22 196/7/22
f 203/20/15 209/25/15 201/28/15 170/21/15
f 177/18/23 200/15/23 198/5/23 181/4/23
f 177/18/24 185/17/24 199/16/24 200/15/24
f 180/6/25 169/1/25 190/3/25
f 179/2/26 169/1/26 194/3/26
f 178/2/27 169/1/27 198/5/27
f 181/4/28 169/1/28 186/3/28
f 182/9/29 199/16/29 209/31/29 203/32/29
f 183/9/30 195/8/30 208/33/30 202/32/30
f 184/13/31 191/12/31 207/34/31 204/35/31
f 185/17/32 187/8/32 206/33/32 205/36/32
f 187/8/33 184/13/33 204/35/33 206/33/33
f 199/16/34 185/17/34 205/36/34 209/31/34
f 191/12/35 183/9/35 202/32/35 207/34/35
f 195/8/43 182/9/43 203/32/43 208/33/43
f 197/22/37 170/21/37 210/37/37
f 170/21/37 201/28/37 210/37/37
f 173/27/37 189/22/37 210/37/37
f 193/24/37 171/21/37 210/37/37
f 189/22/37 172/30/37 210/37/37
f 201/28/37 173/27/37 210/37/37
f 172/30/37 193/24/37 210/37/37
f 171/21/37 197/22/37 210/37/37
