# Blender 4.0.2
# www.blender.org
mtllib c.mtl
o c
v -1.000000 0.154855 -1.000000
v -0.845145 0.000000 -1.000000
v -0.845616 0.155042 -1.000000
v -1.000000 2.335145 -1.000000
v -0.845616 2.334959 -1.000000
v -1.000000 1.245000 -1.000000
v -1.000000 2.335145 0.845616
v -0.845615 2.334959 0.845616
v -0.845145 2.490000 0.845616
v -1.000000 0.154855 0.845616
v -0.845145 0.000000 0.845616
v -1.000000 1.245000 0.845616
v -1.000000 2.335145 -0.845615
v -0.845616 0.155042 -0.845615
v -0.845145 0.000000 -0.845615
v -1.000000 1.245000 -0.845615
v -0.845616 2.334959 -0.845616
v -0.845145 2.490000 -0.845616
v -1.000000 0.154855 -0.845616
v 1.000000 0.000000 0.845145
v 1.000000 0.154855 1.000000
v 1.000000 0.155042 0.845616
v 1.000000 2.335145 1.000000
v 1.000000 2.490000 0.845145
v 1.000000 2.334959 0.845616
v 1.000000 0.000000 -0.845145
v 1.000000 2.490000 -0.845145
v 1.000000 2.335145 -1.000000
v 1.000000 2.334959 -0.845616
v 1.000000 2.490000 0.000000
v 1.000000 0.000000 0.000000
v 1.000000 1.245000 1.000000
v -0.845615 1.245000 0.845616
v -0.845615 0.154855 1.000000
v -0.845615 0.155042 0.845616
v -0.845615 2.335145 1.000000
v -0.845615 2.490000 0.000000
v -0.845615 0.000000 0.000000
v -0.845615 1.245000 1.000000
v 0.845615 2.335145 -1.000000
v 0.845615 0.154855 1.000000
v 0.845615 0.000000 -0.845145
v 0.845615 2.334959 0.845615
v 0.845615 2.490000 0.845145
v 0.845615 0.000000 0.000000
v 0.845615 2.334959 -0.845616
v 0.845615 2.490000 -0.845145
v 0.845615 0.155042 0.845615
v 0.845615 0.000000 0.845145
v 0.845615 0.000000 -1.000000
v 0.845615 2.335145 1.000000
v 0.845615 2.490000 0.000000
v 0.845615 1.245000 1.000000
v 0.845615 0.154855 -0.845145
v 1.000000 0.154855 -0.845145
v 0.845615 0.154855 -1.000000
v 1.000000 0.154855 -1.000000
v -0.845616 2.334959 -0.000000
v -1.000000 0.154855 -0.000000
v -1.000000 2.335145 -0.000000
v -0.845616 0.155042 -0.000000
v -1.000000 1.245000 -0.000000
v -0.845145 2.490000 -1.000000
v 0.845615 2.490000 -0.999529
v -0.000000 0.155042 0.845616
v -0.000000 2.335145 1.000000
v -0.000000 2.490000 -0.000000
v -0.000000 1.245000 1.000000
v -0.000000 0.154855 1.000000
v -0.000000 0.000000 0.000000
v 0.000235 2.490000 -0.845380
v 0.000235 0.000000 0.845380
v 0.000235 0.000000 -1.000000
v 0.000235 0.000000 -0.845380
v -0.000000 2.334959 0.845616
v 0.000235 2.490000 0.845380
v 0.000235 2.490000 -0.999765
vn 1.0000 -0.0000 -0.0000
vn -0.0012 -1.0000 -0.0000
vn 1.0000 -0.0030 -0.0000
vn -0.0000 -0.0000 -1.0000
vn 1.0000 0.0015 -0.0003
vn -0.0012 1.0000 -0.0000
vn 1.0000 0.0030 -0.0000
vn 1.0000 -0.0015 0.0003
vn -0.0000 0.0002 1.0000
vn -0.0000 -0.0030 1.0000
vn -0.0000 1.0000 0.0012
vn -0.0000 0.0030 -1.0000
vn -0.0000 1.0000 -0.0000
vn -0.0000 -1.0000 -0.0000
vn -0.0001 -0.0008 -1.0000
vn -0.0000 -1.0000 0.0012
vn -0.0000 -0.0030 -1.0000
vn -0.0001 0.0023 -1.0000
vn -1.0000 -0.0000 -0.0000
vn -0.0000 -0.0000 1.0000
vn 1.0000 -0.0015 -0.0003
vn 1.0000 0.0015 0.0003
vn -0.0001 0.0008 -1.0000
vn -0.0001 -0.0023 -1.0000
vt 0.797759 0.288897
vt 0.797759 0.076858
vt 0.827788 0.076858
vt 0.827788 0.288897
vt 0.797759 0.500937
vt 0.827788 0.500937
vt 0.827788 0.530966
vt 0.797759 0.530966
vt 0.827788 0.561122
vt 0.797759 0.561122
vt 0.438776 0.500901
vt 0.438776 0.288897
vt 0.468805 0.288897
vt 0.468805 0.500937
vt 0.633282 0.046829
vt 0.468805 0.046829
vt 0.468805 0.016673
vt 0.633282 0.016673
vt 0.633282 0.076858
vt 0.468805 0.076858
vt 0.438776 0.076894
vt 0.797759 0.046829
vt 0.827788 0.046829
vt 0.797759 0.016673
vt 0.827788 0.016673
vt 0.633282 0.500937
vt 0.633282 0.288897
vt 0.633282 0.530966
vt 0.633282 0.561122
vt 0.375606 0.288909
vt 0.375607 0.076855
vt 0.405637 0.076892
vt 0.405637 0.288909
vt 0.921930 0.048369
vt 0.951617 0.048371
vt 0.951576 0.467790
vt 0.921872 0.467811
vt 0.951605 0.497612
vt 0.921909 0.497642
vt 0.046631 0.076855
vt 0.016601 0.076855
vt 0.016601 0.046825
vt 0.046631 0.046825
vt 0.016601 0.016666
vt 0.046631 0.016666
vt 0.211095 0.939965
vt 0.375709 0.939965
vt 0.375709 0.970035
vt 0.211095 0.970035
vt 0.046481 0.939965
vt 0.046481 0.970035
vt 0.375606 0.500962
vt 0.405637 0.500925
vt 0.211119 0.500961
vt 0.211119 0.288908
vt 0.798205 0.775305
vt 0.633545 0.775259
vt 0.633545 0.610553
vt 0.798251 0.610644
vt 0.211119 0.530992
vt 0.375606 0.530992
vt 0.375515 0.561151
vt 0.211073 0.561151
vt 0.468885 0.775305
vt 0.468839 0.610644
vt 0.211119 0.076855
vt 0.016601 0.288908
vt 0.046631 0.288908
vt 0.633545 0.970035
vt 0.468930 0.970035
vt 0.468930 0.939965
vt 0.633545 0.939965
vt 0.016600 0.500961
vt 0.046631 0.500961
vt 0.046631 0.530992
vt 0.016600 0.530992
vt 0.046631 0.561151
vt 0.016600 0.561150
vt 0.798159 0.970035
vt 0.798159 0.939965
vt 0.046435 0.775305
vt 0.211095 0.775259
vt 0.375755 0.775305
vt 0.211119 0.046825
vt 0.211073 0.016666
vt 0.892168 0.467825
vt 0.892224 0.497601
vt 0.016318 0.775305
vt 0.016318 0.610644
vt 0.046389 0.610644
vt 0.892152 0.048369
vt 0.921930 0.018592
vt 0.951618 0.018593
vt 0.892152 0.018592
vt 0.981408 0.048380
vt 0.981277 0.467836
vt 0.862451 0.048370
vt 0.862467 0.467826
vt 0.468805 0.530966
vt 0.468805 0.561122
vt 0.828321 0.610644
vt 0.828276 0.775305
vt 0.828230 0.939965
vt 0.016318 0.939965
vt 0.375607 0.046825
vt 0.375515 0.016666
vt 0.211095 0.610553
vt 0.375801 0.610644
s 0
f 16/1/1 19/2/1 1/3/1 6/4/1
f 13/5/2 4/6/2 5/7/2 17/8/2
f 17/8/3 5/7/3 63/9/3 18/10/3
f 13/5/1 16/1/1 6/4/1 4/6/1
f 8/11/4 33/12/4 12/13/4 7/14/4
f 61/15/5 35/16/5 11/17/5 38/18/5
f 59/19/6 10/20/6 35/16/6 61/15/6
f 33/12/4 35/21/4 10/20/4 12/13/4
f 1/3/6 19/2/6 14/22/6 3/23/6
f 3/23/7 14/22/7 15/24/7 2/25/7
f 60/26/1 62/27/1 16/1/1 13/5/1
f 58/28/8 17/8/8 18/10/8 37/29/8
f 60/26/2 13/5/2 17/8/2 58/28/2
f 62/27/1 59/19/1 19/2/1 16/1/1
f 39/30/1 34/31/1 35/32/1 33/33/1
f 54/34/9 55/35/9 29/36/9 46/37/9
f 46/37/10 29/36/10 27/38/10 47/39/10
f 41/40/11 21/41/11 22/42/11 48/43/11
f 48/43/12 22/42/12 20/44/12 49/45/12
f 45/46/13 49/47/13 20/48/13 31/49/13
f 42/50/13 45/46/13 31/49/13 26/51/13
f 36/52/1 39/30/1 33/33/1 8/53/1
f 66/54/4 68/55/4 39/30/4 36/52/4
f 71/56/14 67/57/14 37/58/14 18/59/14
f 75/60/15 8/61/15 9/62/15 76/63/15
f 66/54/16 36/52/16 8/61/16 75/60/16
f 67/57/14 76/64/14 9/65/14 37/58/14
f 68/55/4 69/66/4 34/31/4 39/30/4
f 32/67/4 21/41/4 41/40/4 53/68/4
f 30/69/14 24/70/14 44/71/14 52/72/14
f 23/73/16 51/74/16 43/75/16 25/76/16
f 25/76/17 43/75/17 44/77/17 24/78/17
f 27/79/14 30/69/14 52/72/14 47/80/14
f 23/73/4 32/67/4 53/68/4 51/74/4
f 74/81/13 70/82/13 45/46/13 42/50/13
f 70/82/13 72/83/13 49/47/13 45/46/13
f 65/84/18 48/43/18 49/45/18 72/85/18
f 69/66/11 41/40/11 48/43/11 65/84/11
f 40/86/19 46/37/19 47/39/19 64/87/19
f 73/88/13 2/89/13 15/90/13 74/81/13
f 56/91/19 54/34/19 46/37/19 40/86/19
f 42/92/20 26/93/20 55/35/20 54/34/20
f 50/94/19 42/92/19 54/34/19 56/91/19
f 55/35/1 57/95/1 28/96/1 29/36/1
f 57/97/4 56/91/4 40/86/4 28/98/4
f 12/13/1 10/20/1 59/19/1 62/27/1
f 7/14/2 60/26/2 58/28/2 8/99/2
f 8/99/21 58/28/21 37/29/21 9/100/21
f 7/14/1 12/13/1 62/27/1 60/26/1
f 19/2/6 59/19/6 61/15/6 14/22/6
f 14/22/22 61/15/22 38/18/22 15/24/22
f 71/56/14 18/59/14 63/101/14 77/102/14
f 47/80/14 71/56/14 77/102/14 64/103/14
f 50/104/13 73/88/13 74/81/13 42/50/13
f 34/31/11 69/66/11 65/84/11 35/105/11
f 35/105/23 65/84/23 72/85/23 11/106/23
f 38/107/13 11/108/13 72/83/13 70/82/13
f 15/90/13 38/107/13 70/82/13 74/81/13
f 53/68/4 41/40/4 69/66/4 68/55/4
f 52/72/14 44/71/14 76/64/14 67/57/14
f 51/74/16 66/54/16 75/60/16 43/75/16
f 43/75/24 75/60/24 76/63/24 44/77/24
f 47/80/14 52/72/14 67/57/14 71/56/14
f 51/74/4 53/68/4 68/55/4 66/54/4
