# Blender 4.0.2
# www.blender.org
mtllib c_1.mtl
o c_1
v -1.000000 0.154855 -1.000000
v -0.845145 0.000000 -1.000000
v -0.845616 0.155042 -1.000000
v -1.000000 2.335145 -1.000000
v -0.845616 2.334959 -1.000000
v -1.000000 1.245000 -1.000000
v -1.000000 2.335145 0.845616
v -0.845615 2.334959 0.845616
v -0.845145 2.490000 0.845616
v -1.000000 0.154855 0.845616
v -0.845145 0.000000 0.845616
v -1.000000 1.245000 0.845616
v -1.000000 2.335145 -0.845615
v -0.845616 0.155042 -0.845615
v -0.845145 0.000000 -0.845615
v -1.000000 1.245000 -0.845615
v -0.845616 2.334959 -0.845616
v -0.845145 2.490000 -0.845616
v -1.000000 0.154855 -0.845616
v 1.000000 0.000000 0.845145
v 1.000000 0.154855 1.000000
v 1.000000 0.155042 0.845616
v 1.000000 2.335145 1.000000
v 1.000000 2.490000 0.845145
v 1.000000 2.334959 0.845616
v 1.000000 0.000000 -0.845145
v 1.000000 2.490000 -0.845145
v 1.000000 2.490000 -0.999529
v 1.000000 2.490000 0.000000
v 1.000000 0.000000 0.000000
v 1.000000 1.245000 1.000000
v -0.845615 1.245000 0.845616
v -0.845615 0.154855 1.000000
v -0.845615 0.155042 0.845616
v -0.845615 2.335145 1.000000
v -0.845615 2.490000 0.000000
v -0.845615 0.000000 0.000000
v -0.845615 1.245000 1.000000
v 0.845615 0.154855 1.000000
v 0.845615 0.000000 -0.845145
v 0.845615 2.334959 0.845615
v 0.845615 2.490000 0.845145
v 0.845615 0.000000 0.000000
v 0.845615 2.490000 -0.845145
v 0.845615 0.155042 0.845615
v 0.845615 0.000000 0.845145
v 0.845615 0.000000 -1.000000
v 0.845615 2.335145 1.000000
v 0.845615 2.490000 0.000000
v 0.845615 1.245000 1.000000
v 1.000000 0.000000 -0.999059
v -0.845616 2.334959 -0.000000
v -1.000000 0.154855 -0.000000
v -1.000000 2.335145 -0.000000
v -0.845616 0.155042 -0.000000
v -1.000000 1.245000 -0.000000
v -0.845145 2.490000 -1.000000
v 0.845615 2.490000 -0.999529
v -0.000000 0.155042 0.845616
v -0.000000 2.335145 1.000000
v -0.000000 2.490000 -0.000000
v -0.000000 1.245000 1.000000
v -0.000000 0.154855 1.000000
v -0.000000 0.000000 0.000000
v 0.000235 2.490000 -0.845380
v 0.000235 0.000000 0.845380
v 0.000235 0.000000 -1.000000
v 0.000235 0.000000 -0.845380
v -0.000000 2.334959 0.845616
v 0.000235 2.490000 0.845380
v 0.000235 2.490000 -0.999765
vn 1.0000 -0.0000 -0.0000
vn -0.0012 -1.0000 -0.0000
vn 1.0000 -0.0030 -0.0000
vn -0.0000 -0.0000 -1.0000
vn 1.0000 0.0015 -0.0003
vn -0.0012 1.0000 -0.0000
vn 1.0000 0.0030 -0.0000
vn 1.0000 -0.0015 0.0003
vn -0.0000 -1.0000 -0.0000
vn -0.0000 1.0000 0.0012
vn -0.0000 0.0030 -1.0000
vn -0.0000 1.0000 -0.0000
vn -0.0001 -0.0008 -1.0000
vn -0.0000 -1.0000 0.0012
vn -0.0000 -0.0030 -1.0000
vn -0.0001 0.0023 -1.0000
vn 1.0000 -0.0015 -0.0003
vn 1.0000 0.0015 0.0003
vn -0.0001 0.0008 -1.0000
vn -0.0001 -0.0023 -1.0000
vt 0.797759 0.288897
vt 0.797759 0.076858
vt 0.827788 0.076858
vt 0.827788 0.288897
vt 0.797759 0.500937
vt 0.827788 0.500937
vt 0.827788 0.530966
vt 0.797759 0.530966
vt 0.827788 0.561122
vt 0.797759 0.561122
vt 0.921901 0.961344
vt 0.921901 0.751594
vt 0.951596 0.751594
vt 0.951596 0.961344
vt 0.633282 0.046829
vt 0.468805 0.046829
vt 0.468805 0.016673
vt 0.633282 0.016673
vt 0.633282 0.076858
vt 0.468805 0.076858
vt 0.921901 0.541893
vt 0.951596 0.541893
vt 0.797759 0.046829
vt 0.827788 0.046829
vt 0.797759 0.016673
vt 0.827788 0.016673
vt 0.633282 0.500937
vt 0.633282 0.288897
vt 0.633282 0.530966
vt 0.633282 0.561122
vt 0.892168 0.751594
vt 0.892168 0.541893
vt 0.828230 0.939965
vt 0.828230 0.970035
vt 0.798159 0.970035
vt 0.798159 0.939965
vt 0.046631 0.076855
vt 0.016601 0.076855
vt 0.016601 0.046825
vt 0.046631 0.046825
vt 0.016601 0.016666
vt 0.046631 0.016666
vt 0.211095 0.939965
vt 0.375709 0.939965
vt 0.375709 0.970035
vt 0.211095 0.970035
vt 0.046481 0.939965
vt 0.046481 0.970035
vt 0.892168 0.961344
vt 0.211119 0.500961
vt 0.211119 0.288908
vt 0.375606 0.288909
vt 0.375606 0.500962
vt 0.798205 0.775305
vt 0.633545 0.775259
vt 0.633545 0.610553
vt 0.798251 0.610644
vt 0.211119 0.530992
vt 0.375606 0.530992
vt 0.375515 0.561151
vt 0.211073 0.561151
vt 0.375606 0.500962
vt 0.468885 0.775305
vt 0.468839 0.610644
vt 0.211119 0.076855
vt 0.375606 0.076855
vt 0.016601 0.288908
vt 0.046631 0.288908
vt 0.633545 0.970035
vt 0.468930 0.970035
vt 0.468930 0.939965
vt 0.633545 0.939965
vt 0.016600 0.500961
vt 0.046631 0.500961
vt 0.046631 0.530992
vt 0.016600 0.530992
vt 0.046631 0.561151
vt 0.016600 0.561150
vt 0.046435 0.775305
vt 0.211095 0.775259
vt 0.211095 0.939965
vt 0.046481 0.939965
vt 0.375755 0.775305
vt 0.211119 0.046825
vt 0.211073 0.016666
vt 0.016318 0.775305
vt 0.016318 0.610644
vt 0.046389 0.610644
vt 0.016318 0.970035
vt 0.016318 0.939965
vt 0.468805 0.288897
vt 0.468805 0.500937
vt 0.468805 0.530966
vt 0.468805 0.561122
vt 0.828321 0.610644
vt 0.828276 0.775305
vt 0.016318 0.939965
vt 0.375607 0.076855
vt 0.375607 0.046825
vt 0.375515 0.016666
vt 0.211095 0.610553
vt 0.375801 0.610644
s 0
f 16/1/1 19/2/1 1/3/1 6/4/1
f 13/5/2 4/6/2 5/7/2 17/8/2
f 17/8/3 5/7/3 57/9/3 18/10/3
f 13/5/1 16/1/1 6/4/1 4/6/1
f 8/11/4 32/12/4 12/13/4 7/14/4
f 55/15/5 34/16/5 11/17/5 37/18/5
f 53/19/6 10/20/6 34/16/6 55/15/6
f 32/12/4 34/21/4 10/22/4 12/13/4
f 1/3/6 19/2/6 14/23/6 3/24/6
f 3/24/7 14/23/7 15/25/7 2/26/7
f 54/27/1 56/28/1 16/1/1 13/5/1
f 52/29/8 17/8/8 18/10/8 36/30/8
f 54/27/2 13/5/2 17/8/2 52/29/2
f 56/28/1 53/19/1 19/2/1 16/1/1
f 38/31/1 33/32/1 34/21/1 32/12/1
f 58/33/9 28/34/9 27/35/9 44/36/9
f 39/37/10 21/38/10 22/39/10 45/40/10
f 45/40/11 22/39/11 20/41/11 46/42/11
f 43/43/12 46/44/12 20/45/12 30/46/12
f 40/47/12 43/43/12 30/46/12 26/48/12
f 35/49/1 38/31/1 32/12/1 8/11/1
f 60/50/4 62/51/4 38/52/4 35/53/4
f 65/54/9 61/55/9 36/56/9 18/57/9
f 69/58/13 8/59/13 9/60/13 70/61/13
f 60/50/14 35/62/14 8/59/14 69/58/14
f 61/55/9 70/63/9 9/64/9 36/56/9
f 62/51/4 63/65/4 33/66/4 38/52/4
f 31/67/4 21/38/4 39/37/4 50/68/4
f 29/69/9 24/70/9 42/71/9 49/72/9
f 23/73/14 48/74/14 41/75/14 25/76/14
f 25/76/15 41/75/15 42/77/15 24/78/15
f 27/35/9 29/69/9 49/72/9 44/36/9
f 23/73/4 31/67/4 50/68/4 48/74/4
f 68/79/12 64/80/12 43/81/12 40/82/12
f 64/80/12 66/83/12 46/44/12 43/81/12
f 59/84/16 45/40/16 46/42/16 66/85/16
f 63/65/10 39/37/10 45/40/10 59/84/10
f 67/86/12 2/87/12 15/88/12 68/79/12
f 40/47/12 26/48/12 51/89/12 47/90/12
f 12/91/1 10/20/1 53/19/1 56/28/1
f 7/92/2 54/27/2 52/29/2 8/93/2
f 8/93/17 52/29/17 36/30/17 9/94/17
f 7/92/1 12/91/1 56/28/1 54/27/1
f 19/2/6 53/19/6 55/15/6 14/23/6
f 14/23/18 55/15/18 37/18/18 15/25/18
f 65/54/9 18/57/9 57/95/9 71/96/9
f 44/36/9 65/54/9 71/96/9 58/33/9
f 47/97/12 67/86/12 68/79/12 40/82/12
f 33/98/10 63/65/10 59/84/10 34/99/10
f 34/99/19 59/84/19 66/85/19 11/100/19
f 37/101/12 11/102/12 66/83/12 64/80/12
f 15/88/12 37/101/12 64/80/12 68/79/12
f 50/68/4 39/37/4 63/65/4 62/51/4
f 49/72/9 42/71/9 70/63/9 61/55/9
f 48/74/14 60/50/14 69/58/14 41/75/14
f 41/75/20 69/58/20 70/61/20 42/77/20
f 44/36/9 49/72/9 61/55/9 65/54/9
f 48/74/4 50/68/4 62/51/4 60/50/4
