# Blender 4.0.2
# www.blender.org
mtllib c_d.mtl
o c_d
v -1.000000 0.154855 -1.000000
v -0.845145 0.000000 -1.000000
v -0.845616 0.155042 -1.000000
v -1.000000 2.335145 -1.000000
v -0.845616 2.334959 -1.000000
v -1.000000 1.245000 -1.000000
v -0.077192 2.335145 0.077192
v -0.000471 2.334959 0.000000
v -0.000000 2.490000 0.000000
v -0.077192 0.154855 0.077192
v -0.000000 0.000000 0.000000
v -0.077192 1.245000 0.077192
v -1.000000 2.335145 -0.845615
v -0.845616 0.155042 -0.845615
v -0.845145 0.000000 -0.845615
v -1.000000 1.245000 -0.845615
v -0.845616 2.334959 -0.845616
v -0.845145 2.490000 -0.845616
v -1.000000 0.154855 -0.845616
v 1.000000 0.000000 0.845145
v 1.000000 0.154855 1.000000
v 1.000000 0.155042 0.845616
v 1.000000 2.335145 1.000000
v 1.000000 2.490000 0.845145
v 1.000000 2.334959 0.845616
v 1.000000 0.000000 -0.845145
v 1.000000 2.490000 -0.845145
v 1.000000 2.490000 -0.999529
v 1.000000 2.490000 0.000000
v 1.000000 0.000000 0.000000
v 1.000000 1.245000 1.000000
v -0.000471 0.155042 0.000000
v 0.845615 0.154855 1.000000
v 0.845615 0.000000 -0.845145
v 0.845615 2.334959 0.845615
v 0.845615 2.490000 0.845145
v 0.845615 0.000000 0.000000
v 0.845615 2.490000 -0.845145
v 0.845615 0.155042 0.845615
v 0.845615 0.000000 0.845145
v 0.845615 0.000000 -1.000000
v 0.845615 2.335145 1.000000
v 0.845615 2.490000 0.000000
v 0.845615 1.245000 1.000000
v 1.000000 0.000000 -0.999059
v -0.845145 2.490000 -1.000000
v 0.845615 2.490000 -0.999529
v 0.000235 2.490000 -0.845380
v 0.000235 0.000000 -1.000000
v 0.000235 0.000000 -0.845380
v 0.000235 2.490000 -0.999765
vn 1.0000 -0.0000 -0.0000
vn -0.0012 -1.0000 -0.0000
vn 1.0000 -0.0030 -0.0000
vn 0.7073 -0.0021 -0.7069
vn -0.0012 1.0000 -0.0000
vn 1.0000 0.0030 -0.0000
vn -0.0012 1.0000 0.0012
vn 0.7073 0.0021 -0.7069
vn 0.7071 -0.0000 -0.7071
vn -0.0012 -1.0000 0.0012
vn -0.0000 -1.0000 -0.0000
vn -0.0000 1.0000 0.0012
vn -0.0000 0.0030 -1.0000
vn -0.0000 1.0000 -0.0000
vn 0.7069 -0.0021 -0.7073
vn -0.0000 -0.0000 -1.0000
vn -0.0000 -1.0000 0.0012
vn -0.0000 -0.0030 -1.0000
vn 0.7069 0.0021 -0.7073
vt 0.375606 0.288897
vt 0.375606 0.076858
vt 0.405637 0.076858
vt 0.405637 0.288897
vt 0.375606 0.500937
vt 0.405637 0.500937
vt 0.405637 0.530966
vt 0.375606 0.530966
vt 0.405637 0.561122
vt 0.375606 0.561122
vt 0.211119 0.530966
vt 0.211119 0.561122
vt 0.375606 0.046829
vt 0.405637 0.046829
vt 0.375606 0.016673
vt 0.405637 0.016673
vt 0.211119 0.076858
vt 0.211119 0.046829
vt 0.211119 0.016673
vt 0.211119 0.500937
vt 0.211119 0.288897
vt 0.828230 0.939965
vt 0.828230 0.970035
vt 0.798159 0.970035
vt 0.798159 0.939965
vt 0.046631 0.076855
vt 0.016601 0.076855
vt 0.016601 0.046825
vt 0.046631 0.046825
vt 0.016601 0.016666
vt 0.046631 0.016666
vt 0.211095 0.939965
vt 0.375709 0.939965
vt 0.375709 0.970035
vt 0.211095 0.970035
vt 0.046481 0.939965
vt 0.046481 0.970035
vt 0.046631 0.500961
vt 0.046631 0.288908
vt 0.211119 0.288909
vt 0.211119 0.500962
vt 0.046631 0.530992
vt 0.211119 0.530992
vt 0.211119 0.561151
vt 0.046631 0.561151
vt 0.016601 0.288908
vt 0.633545 0.970035
vt 0.468930 0.970035
vt 0.468930 0.939965
vt 0.633545 0.939965
vt 0.016600 0.500961
vt 0.016600 0.530992
vt 0.016600 0.561150
vt 0.046435 0.775305
vt 0.211095 0.775259
vt 0.211095 0.939965
vt 0.046481 0.939965
vt 0.211119 0.076855
vt 0.211119 0.046825
vt 0.211119 0.016666
vt 0.016318 0.775305
vt 0.016318 0.610644
vt 0.046389 0.610644
vt 0.016318 0.970035
vt 0.016318 0.939965
vt 0.798205 0.775305
vt 0.798251 0.610644
vt 0.828321 0.610644
vt 0.828276 0.775305
vt 0.016318 0.939965
vt 0.633545 0.775259
s 0
f 16/1/1 19/2/1 1/3/1 6/4/1
f 13/5/2 4/6/2 5/7/2 17/8/2
f 17/8/3 5/7/3 46/9/3 18/10/3
f 13/5/1 16/1/1 6/4/1 4/6/1
f 8/11/4 17/8/4 18/10/4 9/12/4
f 1/3/5 19/2/5 14/13/5 3/14/5
f 3/14/6 14/13/6 15/15/6 2/16/6
f 19/2/7 10/17/7 32/18/7 14/13/7
f 14/13/8 32/18/8 11/19/8 15/15/8
f 7/20/9 12/21/9 16/1/9 13/5/9
f 7/20/10 13/5/10 17/8/10 8/11/10
f 47/22/11 28/23/11 27/24/11 38/25/11
f 33/26/12 21/27/12 22/28/12 39/29/12
f 39/29/13 22/28/13 20/30/13 40/31/13
f 37/32/14 40/33/14 20/34/14 30/35/14
f 34/36/14 37/32/14 30/35/14 26/37/14
f 12/21/9 10/17/9 19/2/9 16/1/9
f 42/38/9 44/39/9 12/40/9 7/41/9
f 35/42/15 8/43/15 9/44/15 36/45/15
f 31/46/16 21/27/16 33/26/16 44/39/16
f 29/47/11 24/48/11 36/49/11 43/50/11
f 23/51/17 42/38/17 35/42/17 25/52/17
f 25/52/18 35/42/18 36/45/18 24/53/18
f 27/24/11 29/47/11 43/50/11 38/25/11
f 23/51/16 31/46/16 44/39/16 42/38/16
f 50/54/14 11/55/14 37/56/14 34/57/14
f 44/39/9 33/26/9 10/58/9 12/40/9
f 32/59/19 39/29/19 40/31/19 11/60/19
f 49/61/14 2/62/14 15/63/14 50/54/14
f 34/36/14 26/37/14 45/64/14 41/65/14
f 48/66/11 18/67/11 46/68/11 51/69/11
f 38/25/11 48/66/11 51/69/11 47/22/11
f 41/70/14 49/61/14 50/54/14 34/57/14
f 10/58/7 33/26/7 39/29/7 32/59/7
f 42/38/10 7/41/10 8/43/10 35/42/10
f 38/25/11 43/50/11 9/71/11 48/66/11
f 43/50/11 36/49/11 9/71/11
f 48/66/11 9/71/11 18/67/11
f 37/56/14 11/55/14 40/33/14
f 50/54/14 15/63/14 11/55/14
