# Blender 4.0.2
# www.blender.org
mtllib o_1.mtl
o o_1
v -1.000000 0.000000 -0.845145
v -1.000000 2.490000 -0.845145
v -1.000000 2.490000 0.000000
v -1.000000 0.000000 0.000000
v -1.000000 2.490187 -1.000000
v -0.845615 0.000000 -0.845145
v -0.845615 0.000000 0.000000
v -0.845615 2.490000 -0.845145
v -0.845615 0.000000 -1.000000
v -0.845615 2.490000 0.000000
v -1.000000 0.000000 -1.000000
v -0.845615 2.490000 -0.999529
v -0.000000 2.490000 -0.845380
v -0.000000 0.000000 -1.000000
v -0.000000 0.000000 -0.845380
v -0.000000 2.490000 -0.999765
v -1.000000 0.000000 0.845145
v -1.000000 2.490187 1.000000
v -0.845615 0.000000 0.845145
v -1.000000 2.490000 0.845615
v -0.845615 2.490000 0.845145
v -0.845615 0.000000 1.000000
v -1.000000 0.000000 1.000000
v -0.845615 2.490000 0.999529
v 0.000000 2.490000 0.000000
v 0.000000 0.000000 0.000000
v 0.000000 2.490000 0.845380
v 0.000000 0.000000 1.000000
v 0.000000 0.000000 0.845380
v 0.000000 2.490000 0.999765
v 1.000000 0.000000 0.845145
v 1.000000 2.490000 -0.000000
v 1.000000 0.000000 -0.000000
v 1.000000 2.490187 1.000000
v 0.845615 0.000000 0.845145
v 0.845615 0.000000 -0.000000
v 1.000000 2.490000 0.845615
v 0.845615 2.490000 0.845145
v 0.845615 2.490000 -0.000000
v 0.845615 0.000000 1.000000
v 1.000000 0.000000 1.000000
v 0.845615 2.490000 0.999529
v 1.000000 0.000000 -0.845145
v 1.000000 2.490000 -0.845145
v 1.000000 2.490187 -1.000000
v 0.845615 0.000000 -0.845145
v 0.845615 2.490000 -0.845145
v 0.845615 0.000000 -1.000000
v 1.000000 0.000000 -1.000000
v 0.845615 2.490000 -0.999529
vn -0.0000 1.0000 -0.0000
vn -0.0000 -1.0000 -0.0000
vn -0.0006 -1.0000 -0.0006
vn -0.0006 -1.0000 0.0006
vn 0.0006 -1.0000 0.0006
vn 0.0006 -1.0000 -0.0006
vt 0.375709 0.610553
vt 0.211095 0.610553
vt 0.211095 0.580482
vt 0.375709 0.580482
vt 0.468930 0.580482
vt 0.633545 0.580482
vt 0.633545 0.610553
vt 0.468930 0.610553
vt 0.375755 0.775213
vt 0.211095 0.775259
vt 0.468885 0.580482
vt 0.438814 0.580482
vt 0.438814 0.610553
vt 0.468885 0.610553
vt 0.375755 0.580482
vt 0.375755 0.610553
vt 0.405872 0.610553
vt 0.405872 0.580482
vt 0.468885 0.610553
vt 0.468885 0.775213
vt 0.438814 0.775213
vt 0.438814 0.610553
vt 0.405872 0.775213
vt 0.633545 0.775259
vt 0.046481 0.610553
vt 0.046481 0.580482
vt 0.798159 0.580482
vt 0.798159 0.610553
vt 0.046435 0.775213
vt 0.798205 0.580482
vt 0.798205 0.610553
vt 0.828276 0.610553
vt 0.828276 0.580482
vt 0.046435 0.580482
vt 0.016318 0.580482
vt 0.016318 0.610553
vt 0.046435 0.610553
vt 0.798205 0.610553
vt 0.828276 0.610553
vt 0.828276 0.775213
vt 0.798205 0.775213
vt 0.016318 0.775213
vt 0.375709 0.939965
vt 0.211095 0.939965
vt 0.211095 0.970035
vt 0.375709 0.970035
vt 0.468930 0.970035
vt 0.633545 0.970035
vt 0.633545 0.939965
vt 0.468930 0.939965
vt 0.375755 0.775305
vt 0.211095 0.775259
vt 0.438814 0.970035
vt 0.468885 0.970035
vt 0.468885 0.939965
vt 0.438814 0.939965
vt 0.375755 0.939965
vt 0.375755 0.970035
vt 0.405872 0.970035
vt 0.405872 0.939965
vt 0.468885 0.939965
vt 0.468885 0.775305
vt 0.438814 0.775305
vt 0.438814 0.939965
vt 0.405872 0.775305
vt 0.046481 0.939965
vt 0.046481 0.970035
vt 0.798159 0.970035
vt 0.798159 0.939965
vt 0.046435 0.775305
vt 0.828276 0.970035
vt 0.828276 0.939965
vt 0.798205 0.939965
vt 0.798205 0.970035
vt 0.046435 0.939965
vt 0.016318 0.939965
vt 0.016318 0.970035
vt 0.046435 0.970035
vt 0.798205 0.939965
vt 0.828276 0.939965
vt 0.828276 0.775305
vt 0.798205 0.775305
vt 0.016318 0.775305
s 0
f 6/1/1 1/4/1 4/3/1 7/2/1
f 2/5/2 8/8/2 10/7/2 3/6/2
f 15/9/1 6/1/1 7/2/1 26/10/1
f 5/11/3 12/14/3 8/13/3 2/12/3
f 6/15/1 9/18/1 11/17/1 1/16/1
f 8/19/2 12/22/2 16/21/2 13/20/2
f 9/17/1 6/16/1 15/9/1 14/23/1
f 8/8/2 13/20/2 25/24/2 10/7/2
f 19/25/1 7/2/1 4/3/1 17/26/1
f 20/27/2 3/6/2 10/7/2 21/28/2
f 29/29/1 26/10/1 7/2/1 19/25/1
f 18/30/4 20/33/4 21/32/4 24/31/4
f 19/34/1 17/37/1 23/36/1 22/35/1
f 21/38/2 27/41/2 30/40/2 24/39/2
f 22/36/1 28/42/1 29/29/1 19/37/1
f 21/28/2 10/7/2 25/24/2 27/41/2
f 35/43/1 31/46/1 33/45/1 36/44/1
f 37/47/2 38/50/2 39/49/2 32/48/2
f 29/51/1 35/43/1 36/44/1 26/52/1
f 34/53/5 42/56/5 38/55/5 37/54/5
f 35/57/1 40/60/1 41/59/1 31/58/1
f 38/61/2 42/64/2 30/63/2 27/62/2
f 40/60/1 35/57/1 29/51/1 28/65/1
f 38/50/2 27/62/2 25/24/2 39/49/2
f 46/66/1 36/44/1 33/45/1 43/67/1
f 44/68/2 32/48/2 39/49/2 47/69/2
f 15/70/1 26/52/1 36/44/1 46/66/1
f 45/71/6 44/74/6 47/73/6 50/72/6
f 46/75/1 43/78/1 49/77/1 48/76/1
f 47/79/2 13/82/2 16/81/2 50/80/2
f 48/76/1 14/83/1 15/70/1 46/75/1
f 47/69/2 39/49/2 25/24/2 13/82/2
