# Blender 4.0.2
# www.blender.org
mtllib s.mtl
o s
v 1.000000 0.000000 0.845145
v 1.000000 0.154855 1.000000
v 1.000000 0.155042 0.845616
v 1.000000 2.335145 1.000000
v 1.000000 2.490000 0.845145
v 1.000000 2.334959 0.845616
v 1.000000 0.154855 -1.000000
v 1.000000 0.000000 -0.845145
v 1.000000 0.155042 -0.845616
v 1.000000 2.490000 -0.845145
v 1.000000 2.335145 -1.000000
v 1.000000 2.334959 -0.845616
v -1.000000 0.000000 -0.845145
v -1.000000 0.154855 -1.000000
v -1.000000 0.155042 -0.845616
v -1.000000 2.335145 -1.000000
v -1.000000 2.490000 -0.845145
v -1.000000 2.334959 -0.845616
v -1.000000 0.154855 1.000000
v -1.000000 0.000000 0.845145
v -1.000000 0.155042 0.845616
v -1.000000 2.490000 0.845145
v -1.000000 2.335145 1.000000
v -1.000000 2.334959 0.845616
v 1.000000 2.490000 0.000000
v -1.000000 2.490000 0.000000
v -1.000000 0.000000 0.000000
v 1.000000 0.000000 0.000000
v -1.000000 1.245000 -1.000000
v 1.000000 1.245000 -1.000000
v 1.000000 1.245000 1.000000
v -1.000000 1.245000 1.000000
v 0.000000 2.335145 -1.000000
v 0.000000 2.334959 -0.845616
v 0.000000 2.490000 -0.845145
v 0.000000 0.154855 1.000000
v 0.000000 0.155042 0.845616
v 0.000000 0.000000 0.845145
v 0.000000 0.154855 -1.000000
v 0.000000 0.155042 -0.845616
v 0.000000 0.000000 -0.845145
v 0.000000 2.335145 1.000000
v 0.000000 2.334959 0.845616
v 0.000000 2.490000 0.845145
v 0.000000 2.490000 0.000000
v 0.000000 0.000000 0.000000
v 0.000000 1.245000 -1.000000
v 0.000000 1.245000 1.000000
v 0.845615 2.335145 -1.000000
v 0.845615 0.154855 1.000000
v 0.845615 0.155042 -0.845616
v 0.845615 0.000000 -0.845145
v 0.845615 2.334959 0.845616
v 0.845615 2.490000 0.845145
v 0.845615 0.000000 0.000000
v 0.845615 1.245000 -1.000000
v 0.845615 2.334959 -0.845616
v 0.845615 2.490000 -0.845145
v 0.845615 0.155042 0.845616
v 0.845615 0.000000 0.845145
v 0.845615 0.154855 -1.000000
v 0.845615 2.335145 1.000000
v 0.845615 2.490000 0.000000
v 0.845615 1.245000 1.000000
v -0.845145 2.334959 -0.845616
v -0.845145 2.490000 -0.845145
v -0.845145 0.155042 0.845616
v -0.845145 0.000000 0.845145
v -0.845145 0.154855 -1.000000
v -0.845145 2.335145 1.000000
v -0.845145 2.490000 0.000000
v -0.845145 1.245000 1.000000
v -0.845145 2.335145 -1.000000
v -0.845145 0.154855 1.000000
v -0.845145 0.155042 -0.845616
v -0.845145 0.000000 -0.845145
v -0.845145 2.334959 0.845616
v -0.845145 2.490000 0.845145
v -0.845145 0.000000 0.000000
v -0.845145 1.245000 -1.000000
vn -0.0000 -0.0000 1.0000
vn -0.0000 -0.0000 -1.0000
vn -0.0000 -1.0000 -0.0000
vn -0.0000 -1.0000 -0.0012
vn -0.0000 -0.0030 1.0000
vn -0.0000 1.0000 0.0012
vn -0.0000 0.0030 -1.0000
vn -0.0000 1.0000 -0.0012
vn -0.0000 0.0030 1.0000
vn -0.0000 -1.0000 0.0012
vn -0.0000 -0.0030 -1.0000
vn -0.0000 1.0000 -0.0000
vt 0.797952 0.288903
vt 0.797952 0.076627
vt 0.828014 0.076627
vt 0.828014 0.288903
vt 0.375666 0.288903
vt 0.375666 0.076627
vt 0.405820 0.076627
vt 0.405820 0.288903
vt 0.211088 0.610697
vt 0.046519 0.610697
vt 0.046519 0.580544
vt 0.211088 0.580544
vt 0.797952 0.501178
vt 0.828014 0.501178
vt 0.828014 0.531240
vt 0.797952 0.531240
vt 0.828014 0.561431
vt 0.797952 0.561430
vt 0.046437 0.076627
vt 0.016375 0.076627
vt 0.016375 0.046565
vt 0.046437 0.046565
vt 0.016375 0.016375
vt 0.046437 0.016375
vt 0.468723 0.076627
vt 0.438569 0.076627
vt 0.438569 0.046565
vt 0.468723 0.046565
vt 0.438569 0.016375
vt 0.468723 0.016375
vt 0.375666 0.501178
vt 0.405819 0.501178
vt 0.405819 0.531240
vt 0.375666 0.531240
vt 0.405820 0.561431
vt 0.375666 0.561431
vt 0.633248 0.939926
vt 0.797816 0.939926
vt 0.797816 0.969988
vt 0.633248 0.969988
vt 0.375656 0.610697
vt 0.375656 0.580544
vt 0.468679 0.939926
vt 0.468679 0.969988
vt 0.046437 0.501178
vt 0.046437 0.288903
vt 0.211097 0.288903
vt 0.211097 0.501178
vt 0.468723 0.501178
vt 0.468723 0.288903
vt 0.633292 0.288903
vt 0.633292 0.501178
vt 0.468679 0.610697
vt 0.633248 0.610697
vt 0.633248 0.775266
vt 0.468679 0.775266
vt 0.375656 0.939926
vt 0.211088 0.939926
vt 0.211088 0.775266
vt 0.375656 0.775266
vt 0.797816 0.610697
vt 0.797816 0.775266
vt 0.046437 0.531240
vt 0.211097 0.531240
vt 0.211097 0.561431
vt 0.046437 0.561431
vt 0.797952 0.046565
vt 0.633292 0.046565
vt 0.633292 0.016375
vt 0.797952 0.016375
vt 0.633292 0.076627
vt 0.375666 0.046565
vt 0.211097 0.046565
vt 0.211097 0.016375
vt 0.375666 0.016375
vt 0.211097 0.076627
vt 0.468723 0.531240
vt 0.633292 0.531240
vt 0.633292 0.561430
vt 0.468723 0.561430
vt 0.046519 0.939926
vt 0.046519 0.775266
vt 0.016375 0.288903
vt 0.211088 0.969988
vt 0.046519 0.969988
vt 0.828014 0.046565
vt 0.828014 0.016375
vt 0.016375 0.501178
vt 0.016375 0.531240
vt 0.016375 0.561431
vt 0.375656 0.969988
vt 0.438569 0.288903
vt 0.438569 0.501178
vt 0.438569 0.531240
vt 0.438569 0.561430
vt 0.405820 0.046565
vt 0.405820 0.016375
vt 0.633248 0.580544
vt 0.797816 0.580544
vt 0.468679 0.580544
s 0
f 56/1/1 61/2/1 7/3/1 30/4/1
f 72/5/2 74/6/2 19/7/2 32/8/2
f 71/9/3 78/10/3 22/11/3 26/12/3
f 49/13/4 11/14/4 12/15/4 57/16/4
f 57/16/5 12/15/5 10/17/5 58/18/5
f 50/19/6 2/20/6 3/21/6 59/22/6
f 59/22/7 3/21/7 1/23/7 60/24/7
f 69/25/8 14/26/8 15/27/8 75/28/8
f 75/28/9 15/27/9 13/29/9 76/30/9
f 70/31/10 23/32/10 24/33/10 77/34/10
f 77/34/11 24/33/11 22/35/11 78/36/11
f 55/37/12 60/38/12 1/39/12 28/40/12
f 66/41/3 71/9/3 26/12/3 17/42/3
f 52/43/12 55/37/12 28/40/12 8/44/12
f 49/13/1 56/1/1 30/4/1 11/14/1
f 70/31/2 72/5/2 32/8/2 23/32/2
f 62/45/2 64/46/2 48/47/2 42/48/2
f 73/49/1 80/50/1 47/51/1 33/52/1
f 76/53/12 79/54/12 46/55/12 41/56/12
f 58/57/3 63/58/3 45/59/3 35/60/3
f 79/54/12 68/61/12 38/62/12 46/55/12
f 53/63/11 43/64/11 44/65/11 54/66/11
f 62/45/10 42/48/10 43/64/10 53/63/10
f 51/67/9 40/68/9 41/69/9 52/70/9
f 61/2/8 39/71/8 40/68/8 51/67/8
f 67/72/7 37/73/7 38/74/7 68/75/7
f 74/6/6 36/76/6 37/73/6 67/72/6
f 65/77/5 34/78/5 35/79/5 66/80/5
f 73/49/4 33/52/4 34/78/4 65/77/4
f 63/58/3 54/81/3 44/82/3 45/59/3
f 64/46/2 50/19/2 36/76/2 48/47/2
f 80/50/1 69/25/1 39/71/1 47/51/1
f 31/83/2 2/20/2 50/19/2 64/46/2
f 25/84/3 5/85/3 54/81/3 63/58/3
f 7/3/8 61/2/8 51/67/8 9/86/8
f 9/86/9 51/67/9 52/70/9 8/87/9
f 4/88/10 62/45/10 53/63/10 6/89/10
f 6/89/11 53/63/11 54/66/11 5/90/11
f 10/91/3 25/84/3 63/58/3 58/57/3
f 4/88/2 31/83/2 64/46/2 62/45/2
f 33/52/1 47/51/1 56/1/1 49/13/1
f 41/56/12 46/55/12 55/37/12 52/43/12
f 46/55/12 38/62/12 60/38/12 55/37/12
f 37/73/7 59/22/7 60/24/7 38/74/7
f 36/76/6 50/19/6 59/22/6 37/73/6
f 34/78/5 57/16/5 58/18/5 35/79/5
f 33/52/4 49/13/4 57/16/4 34/78/4
f 47/51/1 39/71/1 61/2/1 56/1/1
f 29/92/1 14/26/1 69/25/1 80/50/1
f 16/93/4 73/49/4 65/77/4 18/94/4
f 18/94/5 65/77/5 66/80/5 17/95/5
f 19/7/6 74/6/6 67/72/6 21/96/6
f 21/96/7 67/72/7 68/75/7 20/97/7
f 27/98/12 20/99/12 68/61/12 79/54/12
f 13/100/12 27/98/12 79/54/12 76/53/12
f 16/93/1 29/92/1 80/50/1 73/49/1
f 42/48/2 48/47/2 72/5/2 70/31/2
f 35/60/3 45/59/3 71/9/3 66/41/3
f 43/64/11 77/34/11 78/36/11 44/65/11
f 42/48/10 70/31/10 77/34/10 43/64/10
f 40/68/9 75/28/9 76/30/9 41/69/9
f 39/71/8 69/25/8 75/28/8 40/68/8
f 45/59/3 44/82/3 78/10/3 71/9/3
f 48/47/2 36/76/2 74/6/2 72/5/2
