# Blender 4.0.2
# www.blender.org
mtllib arrow_ammo.mtl
o arrow_ammo
v 1.043663 0.622723 -0.000001
v 0.102764 0.599713 0.000005
v 0.102764 0.622729 -0.023012
v 0.102764 0.645734 -0.000007
v 0.102764 0.622719 0.023011
v 0.951146 0.585678 0.000008
v 0.951146 0.622732 -0.024202
v 0.951146 0.659766 -0.000011
v 0.951146 0.622714 0.024201
v 0.986953 0.600123 0.000005
v 0.986953 0.622728 -0.014765
v 0.986953 0.645322 -0.000007
v 0.986953 0.622718 0.014764
v 0.900140 0.557880 0.000018
v 0.900140 0.622742 -0.050262
v 0.900140 0.687562 -0.000023
v 0.900140 0.622706 0.050262
v 0.986953 0.628144 0.005420
v 0.900140 0.641177 0.018454
v 0.951146 0.631609 0.008885
v 0.102764 0.634226 0.011502
v 0.986953 0.628146 -0.005425
v 0.900140 0.641186 -0.018466
v 0.951146 0.631613 -0.008892
v 0.102764 0.634232 -0.011509
v 0.986953 0.617302 -0.005422
v 0.900140 0.604268 -0.018456
v 0.951146 0.613837 -0.008887
v 0.102764 0.611221 -0.011503
v 0.986953 0.617299 0.005423
v 0.900140 0.604259 0.018463
v 0.951146 0.613832 0.008890
v 0.102764 0.611215 0.011508
v 0.911210 0.622729 -0.023012
v 0.911210 0.599713 0.000005
v 0.911210 0.645734 -0.000007
v 0.911210 0.622719 0.023011
v 0.911210 0.634226 0.011502
v 0.911210 0.634232 -0.011509
v 0.911210 0.611221 -0.011503
v 0.911210 0.611215 0.011508
v 0.102764 0.622724 -0.000001
vn 0.1191 -0.2991 -0.9468
vn 0.1296 0.8577 -0.4975
vn 0.1296 -0.8577 0.4975
vn 0.1191 0.2991 0.9467
vn 0.2484 -0.8376 -0.4865
vn 0.2096 0.3366 -0.9180
vn 0.2096 -0.3366 0.9180
vn 0.2484 0.8377 0.4864
vn 0.1311 -0.8573 -0.4979
vn 0.1206 0.2986 -0.9467
vn 0.1206 -0.2987 0.9467
vn 0.1311 0.8573 0.4978
vn -0.0000 -0.7071 -0.7071
vn -0.0000 0.7071 -0.7071
vn -0.0000 -0.7071 0.7071
vn -0.0000 0.7071 0.7071
vn 0.1205 0.2991 0.9466
vn 0.2095 0.3371 0.9179
vn 0.1312 0.8575 -0.4974
vn 0.2485 0.8379 -0.4860
vn 0.1205 -0.2990 -0.9466
vn 0.2095 -0.3370 -0.9179
vn 0.1312 -0.8575 0.4974
vn 0.2485 -0.8379 0.4860
vn 0.1191 0.2987 -0.9469
vn 0.1296 -0.8574 -0.4980
vn 0.1191 -0.2987 0.9469
vn 0.1296 0.8575 0.4979
vn -0.7908 0.2812 -0.5436
vn -0.7509 0.5430 0.3759
vn -0.7908 -0.2812 0.5436
vn -0.7508 -0.5431 -0.3759
vn -0.7907 -0.2816 -0.5436
vn -0.7511 0.5430 -0.3755
vn -0.7511 -0.5430 0.3755
vn -0.7907 0.2815 0.5436
vn -1.0000 -0.0000 -0.0000
vt 0.913708 0.986232
vt 0.925186 0.945488
vt 0.913708 0.945488
vt 0.902229 0.945488
vt 0.913707 0.945488
vt 0.902230 0.945488
vt 0.913708 0.919762
vt 0.913708 0.883118
vt 0.952782 0.883118
vt 0.932522 0.919762
vt 0.913708 0.919762
vt 0.913708 0.883118
vt 0.874636 0.883118
vt 0.894895 0.919762
vt 0.913707 0.919762
vt 0.913707 0.883118
vt 0.874631 0.883118
vt 0.894892 0.919762
vt 0.977919 0.988882
vt 0.986077 0.988882
vt 0.986077 0.536027
vt 0.977919 0.536027
vt 0.977918 0.988882
vt 0.977918 0.536027
vt 0.977918 0.988882
vt 0.969759 0.988882
vt 0.969759 0.536027
vt 0.977918 0.536027
vt 0.969760 0.988882
vt 0.969760 0.536027
vt 0.913707 0.855847
vt 0.925394 0.855847
vt 0.913708 0.855847
vt 0.913707 0.855847
vt 0.902021 0.855847
vt 0.902019 0.855847
vt 0.977919 0.488941
s 0
usemtl test_normal
f 1/1/1 10/2/1 26/3/1
f 1/1/2 11/2/2 22/3/2
f 1/1/3 13/4/3 30/5/3
f 1/1/4 12/6/4 18/3/4
f 28/7/5 27/8/5 15/9/5 7/10/5
f 24/11/6 23/12/6 16/13/6 8/14/6
f 32/15/7 31/16/7 14/9/7 6/10/7
f 20/7/8 19/8/8 17/17/8 9/18/8
f 28/7/9 7/10/9 11/2/9 26/3/9
f 24/11/10 8/14/10 12/6/10 22/3/10
f 32/15/11 6/10/11 10/2/11 30/5/11
f 20/7/12 9/18/12 13/4/12 18/3/12
f 40/19/13 35/20/13 2/21/13 29/22/13
f 39/23/14 34/20/14 3/21/14 25/24/14
f 41/25/15 37/26/15 5/27/15 33/28/15
f 38/19/16 36/29/16 4/30/16 21/22/16
f 37/26/16 38/19/16 21/22/16 5/27/16
f 8/14/17 20/7/17 18/3/17 12/6/17
f 8/14/18 16/13/18 19/8/18 20/7/18
f 36/29/14 39/23/14 25/24/14 4/30/14
f 7/10/19 24/11/19 22/3/19 11/2/19
f 7/10/20 15/9/20 23/12/20 24/11/20
f 34/20/13 40/19/13 29/22/13 3/21/13
f 6/10/21 28/7/21 26/3/21 10/2/21
f 6/10/22 14/9/22 27/8/22 28/7/22
f 35/20/15 41/25/15 33/28/15 2/21/15
f 9/18/23 32/15/23 30/5/23 13/4/23
f 9/18/24 17/17/24 31/16/24 32/15/24
f 12/6/25 1/1/25 22/3/25
f 11/2/26 1/1/26 26/3/26
f 10/2/27 1/1/27 30/5/27
f 13/4/28 1/1/28 18/3/28
f 14/9/29 31/16/29 41/31/29 35/32/29
f 15/9/30 27/8/30 40/33/30 34/32/30
f 16/13/31 23/12/31 39/34/31 36/35/31
f 17/17/32 19/8/32 38/33/32 37/36/32
f 19/8/33 16/13/33 36/35/33 38/33/33
f 31/16/34 17/17/34 37/36/34 41/31/34
f 23/12/35 15/9/35 34/32/35 39/34/35
f 27/8/36 14/9/36 35/32/36 40/33/36
f 29/22/37 2/21/37 42/37/37
f 2/21/37 33/28/37 42/37/37
f 5/27/37 21/22/37 42/37/37
f 25/24/37 3/21/37 42/37/37
f 21/22/37 4/30/37 42/37/37
f 33/28/37 5/27/37 42/37/37
f 4/30/37 25/24/37 42/37/37
f 3/21/37 29/22/37 42/37/37
