# Blender 4.0.2
# www.blender.org
mtllib bone.mtl
o bone
v 0.000000 0.041597 0.297706
v 0.000000 0.016821 0.281987
v 0.039914 0.005698 0.293324
v 0.057383 0.041597 0.303479
v 0.030514 0.041597 -0.000000
v 0.021577 0.024455 -0.000000
v 0.000000 0.017355 -0.000000
v 0.030514 0.041597 0.241711
v 0.021577 0.024455 0.241711
v 0.000000 0.017355 0.241711
v 0.063017 0.041597 0.280405
v 0.047896 -0.001540 0.277859
v 0.000000 0.011082 0.269927
v 0.029694 0.041597 0.313234
v 0.025121 0.020020 0.305378
v 0.000000 0.028719 0.290992
v 0.048220 0.041597 0.261603
v 0.039283 0.005698 0.261603
v 0.000000 0.014024 0.256910
v -0.039914 0.005698 0.293324
v -0.057383 0.041597 0.303479
v -0.030514 0.041597 -0.000000
v -0.021577 0.024455 -0.000000
v -0.030514 0.041597 0.241711
v -0.021577 0.024455 0.241711
v -0.063017 0.041597 0.280405
v -0.047896 -0.001540 0.277859
v -0.029694 0.041597 0.313234
v -0.025121 0.020020 0.305378
v -0.048220 0.041597 0.261603
v -0.039283 0.005698 0.261603
v 0.000000 0.041597 -0.297706
v 0.000000 0.016821 -0.281987
v 0.039914 0.005698 -0.293324
v 0.057383 0.041597 -0.303479
v 0.030514 0.041597 -0.241711
v 0.021577 0.024455 -0.241711
v 0.000000 0.017355 -0.241711
v 0.063017 0.041597 -0.280405
v 0.047896 -0.001540 -0.277859
v 0.000000 0.011082 -0.269927
v 0.029694 0.041597 -0.313234
v 0.025121 0.020020 -0.305378
v 0.000000 0.028719 -0.290992
v 0.048220 0.041597 -0.261603
v 0.039283 0.005698 -0.261603
v 0.000000 0.014024 -0.256910
v -0.039914 0.005698 -0.293324
v -0.057383 0.041597 -0.303479
v -0.030514 0.041597 -0.241711
v -0.021577 0.024455 -0.241711
v -0.063017 0.041597 -0.280405
v -0.047896 -0.001540 -0.277859
v -0.029694 0.041597 -0.313234
v -0.025121 0.020020 -0.305378
v -0.048220 0.041597 -0.261603
v -0.039283 0.005698 -0.261603
v 0.000000 0.066372 0.281987
v 0.039914 0.077495 0.293324
v 0.021577 0.058738 -0.000000
v 0.000000 0.065838 -0.000000
v 0.021577 0.058738 0.241711
v 0.000000 0.065838 0.241711
v 0.047896 0.084733 0.277859
v 0.000000 0.072111 0.269927
v 0.025121 0.063173 0.305378
v 0.000000 0.054474 0.290992
v 0.039283 0.077495 0.261603
v 0.000000 0.069169 0.256910
v -0.039914 0.077495 0.293324
v -0.021577 0.058738 -0.000000
v -0.021577 0.058738 0.241711
v -0.047896 0.084733 0.277859
v -0.025121 0.063173 0.305378
v -0.039283 0.077495 0.261603
v 0.000000 0.066373 -0.281987
v 0.039914 0.077495 -0.293324
v 0.021577 0.058738 -0.241711
v 0.000000 0.065838 -0.241711
v 0.047896 0.084733 -0.277859
v 0.000000 0.072111 -0.269927
v 0.025121 0.063173 -0.305378
v 0.000000 0.054474 -0.290992
v 0.039283 0.077495 -0.261603
v 0.000000 0.069170 -0.256910
v -0.039914 0.077495 -0.293324
v -0.021577 0.058738 -0.241711
v -0.047896 0.084733 -0.277859
v -0.025121 0.063173 -0.305378
v -0.039283 0.077495 -0.261603
vn -0.4522 -0.2190 0.8646
vn -0.5554 -0.3845 0.7374
vn 0.3126 -0.9499 -0.0000
vn 0.8867 -0.4623 -0.0000
vn -0.1872 -0.9436 -0.2731
vn 0.7892 -0.2218 -0.5727
vn -0.4368 -0.7001 0.5649
vn 0.3126 -0.3911 0.8656
vn 0.8359 -0.4043 0.3712
vn -0.3131 -0.8908 0.3292
vn 0.6721 -0.2265 -0.7050
vn 0.0248 -0.8403 -0.5415
vn 0.4522 -0.2190 0.8646
vn 0.5554 -0.3845 0.7374
vn -0.3126 -0.9499 -0.0000
vn -0.8867 -0.4623 -0.0000
vn 0.1872 -0.9436 -0.2731
vn -0.7892 -0.2218 -0.5727
vn 0.4368 -0.7001 0.5649
vn -0.3126 -0.3911 0.8656
vn -0.8359 -0.4043 0.3712
vn 0.3131 -0.8908 0.3292
vn -0.6721 -0.2265 -0.7050
vn -0.0248 -0.8403 -0.5415
vn -0.4522 -0.2190 -0.8646
vn -0.5554 -0.3845 -0.7374
vn -0.1872 -0.9436 0.2731
vn 0.7892 -0.2218 0.5727
vn -0.4368 -0.7001 -0.5649
vn 0.3126 -0.3911 -0.8656
vn 0.8359 -0.4043 -0.3712
vn -0.3131 -0.8908 -0.3292
vn 0.6721 -0.2265 0.7050
vn 0.0248 -0.8403 0.5415
vn 0.4522 -0.2190 -0.8646
vn 0.5554 -0.3845 -0.7374
vn 0.1872 -0.9436 0.2731
vn -0.7892 -0.2218 0.5727
vn 0.4368 -0.7001 -0.5649
vn -0.3126 -0.3911 -0.8656
vn -0.8359 -0.4043 -0.3712
vn 0.3131 -0.8908 -0.3292
vn -0.6721 -0.2265 0.7050
vn -0.0248 -0.8403 0.5415
vn -0.4522 0.2190 0.8646
vn -0.5554 0.3845 0.7374
vn 0.3126 0.9499 -0.0000
vn 0.8867 0.4623 -0.0000
vn -0.1872 0.9436 -0.2731
vn 0.7892 0.2218 -0.5727
vn -0.4368 0.7001 0.5649
vn 0.3126 0.3911 0.8656
vn 0.8359 0.4043 0.3712
vn -0.3131 0.8908 0.3292
vn 0.6721 0.2265 -0.7050
vn 0.0248 0.8403 -0.5415
vn 0.4522 0.2190 0.8646
vn 0.5554 0.3845 0.7374
vn -0.3126 0.9499 -0.0000
vn -0.8867 0.4623 -0.0000
vn 0.1872 0.9436 -0.2731
vn -0.7892 0.2218 -0.5727
vn 0.4368 0.7001 0.5649
vn -0.3126 0.3911 0.8656
vn -0.8359 0.4043 0.3712
vn 0.3131 0.8908 0.3292
vn -0.6721 0.2265 -0.7050
vn -0.0248 0.8403 -0.5415
vn -0.4522 0.2190 -0.8646
vn -0.5554 0.3845 -0.7374
vn -0.1872 0.9436 0.2731
vn 0.7892 0.2218 0.5727
vn -0.4368 0.7001 -0.5649
vn 0.3126 0.3911 -0.8656
vn 0.8359 0.4043 -0.3712
vn -0.3131 0.8908 -0.3292
vn 0.6721 0.2265 0.7050
vn 0.0248 0.8403 0.5415
vn 0.4522 0.2190 -0.8646
vn 0.5554 0.3845 -0.7374
vn 0.1872 0.9436 0.2731
vn -0.7892 0.2218 0.5727
vn 0.4368 0.7001 -0.5649
vn -0.3126 0.3911 -0.8656
vn -0.8359 0.4043 -0.3712
vn 0.3131 0.8908 -0.3292
vn -0.6721 0.2265 0.7050
vn -0.0248 0.8403 0.5415
vt 0.945312 0.668652
vt 0.837619 0.684073
vt 0.891544 0.668652
vt 0.837619 0.668652
vt 0.891544 0.496796
vt 0.891544 0.576110
vt 0.837777 0.576110
vt 0.837619 0.496796
vt 0.945312 0.496796
vt 0.945312 0.576110
vt 0.891544 0.601619
vt 0.891544 0.627129
vt 0.837619 0.627129
vt 0.837619 0.601619
vt 0.945312 0.601619
vt 0.945312 0.627129
vt 0.891544 0.647891
vt 0.837619 0.647891
vt 0.945312 0.647891
vt 0.729926 0.668652
vt 0.783693 0.668652
vt 0.783693 0.496796
vt 0.837461 0.576110
vt 0.783693 0.576110
vt 0.729926 0.496796
vt 0.729926 0.576110
vt 0.783693 0.601619
vt 0.783693 0.627129
vt 0.729926 0.601619
vt 0.729926 0.627129
vt 0.783693 0.647891
vt 0.729926 0.647891
s 0
f 14/1/1 1/2/1 15/3/1
f 15/3/2 1/2/2 16/4/2
f 6/5/3 9/6/3 10/7/3 7/8/3
f 5/9/4 8/10/4 9/6/4 6/5/4
f 18/11/5 12/12/5 13/13/5 19/14/5
f 17/15/6 11/16/6 12/12/6 18/11/6
f 3/17/7 15/3/7 16/4/7 2/18/7
f 4/19/8 14/1/8 15/3/8 3/17/8
f 11/16/9 4/19/9 3/17/9 12/12/9
f 12/12/10 3/17/10 2/18/10 13/13/10
f 8/10/11 17/15/11 18/11/11 9/6/11
f 9/6/12 18/11/12 19/14/12 10/7/12
f 28/20/13 29/21/13 1/2/13
f 29/21/14 16/4/14 1/2/14
f 23/22/15 7/8/15 10/23/15 25/24/15
f 22/25/16 23/22/16 25/24/16 24/26/16
f 31/27/17 19/14/17 13/13/17 27/28/17
f 30/29/18 31/27/18 27/28/18 26/30/18
f 20/31/19 2/18/19 16/4/19 29/21/19
f 21/32/20 20/31/20 29/21/20 28/20/20
f 26/30/21 27/28/21 20/31/21 21/32/21
f 27/28/22 13/13/22 2/18/22 20/31/22
f 24/26/23 25/24/23 31/27/23 30/29/23
f 25/24/24 10/23/24 19/14/24 31/27/24
f 42/1/25 43/3/25 32/2/25
f 43/3/26 44/4/26 32/2/26
f 6/5/3 7/8/3 38/7/3 37/6/3
f 5/9/4 6/5/4 37/6/4 36/10/4
f 46/11/27 47/14/27 41/13/27 40/12/27
f 45/15/28 46/11/28 40/12/28 39/16/28
f 34/17/29 33/18/29 44/4/29 43/3/29
f 35/19/30 34/17/30 43/3/30 42/1/30
f 39/16/31 40/12/31 34/17/31 35/19/31
f 40/12/32 41/13/32 33/18/32 34/17/32
f 36/10/33 37/6/33 46/11/33 45/15/33
f 37/6/34 38/7/34 47/14/34 46/11/34
f 54/20/35 32/2/35 55/21/35
f 55/21/36 32/2/36 44/4/36
f 23/22/15 51/24/15 38/23/15 7/8/15
f 22/25/16 50/26/16 51/24/16 23/22/16
f 57/27/37 53/28/37 41/13/37 47/14/37
f 56/29/38 52/30/38 53/28/38 57/27/38
f 48/31/39 55/21/39 44/4/39 33/18/39
f 49/32/40 54/20/40 55/21/40 48/31/40
f 52/30/41 49/32/41 48/31/41 53/28/41
f 53/28/42 48/31/42 33/18/42 41/13/42
f 50/26/43 56/29/43 57/27/43 51/24/43
f 51/24/44 57/27/44 47/14/44 38/23/44
f 14/1/45 66/3/45 1/2/45
f 66/3/46 67/4/46 1/2/46
f 60/5/47 61/8/47 63/7/47 62/6/47
f 5/9/48 60/5/48 62/6/48 8/10/48
f 68/11/49 69/14/49 65/13/49 64/12/49
f 17/15/50 68/11/50 64/12/50 11/16/50
f 59/17/51 58/18/51 67/4/51 66/3/51
f 4/19/52 59/17/52 66/3/52 14/1/52
f 11/16/53 64/12/53 59/17/53 4/19/53
f 64/12/54 65/13/54 58/18/54 59/17/54
f 8/10/55 62/6/55 68/11/55 17/15/55
f 62/6/56 63/7/56 69/14/56 68/11/56
f 28/20/57 1/2/57 74/21/57
f 74/21/58 1/2/58 67/4/58
f 71/22/59 72/24/59 63/23/59 61/8/59
f 22/25/60 24/26/60 72/24/60 71/22/60
f 75/27/61 73/28/61 65/13/61 69/14/61
f 30/29/62 26/30/62 73/28/62 75/27/62
f 70/31/63 74/21/63 67/4/63 58/18/63
f 21/32/64 28/20/64 74/21/64 70/31/64
f 26/30/65 21/32/65 70/31/65 73/28/65
f 73/28/66 70/31/66 58/18/66 65/13/66
f 24/26/67 30/29/67 75/27/67 72/24/67
f 72/24/68 75/27/68 69/14/68 63/23/68
f 42/1/69 32/2/69 82/3/69
f 82/3/70 32/2/70 83/4/70
f 60/5/47 78/6/47 79/7/47 61/8/47
f 5/9/48 36/10/48 78/6/48 60/5/48
f 84/11/71 80/12/71 81/13/71 85/14/71
f 45/15/72 39/16/72 80/12/72 84/11/72
f 77/17/73 82/3/73 83/4/73 76/18/73
f 35/19/74 42/1/74 82/3/74 77/17/74
f 39/16/75 35/19/75 77/17/75 80/12/75
f 80/12/76 77/17/76 76/18/76 81/13/76
f 36/10/77 45/15/77 84/11/77 78/6/77
f 78/6/78 84/11/78 85/14/78 79/7/78
f 54/20/79 89/21/79 32/2/79
f 89/21/80 83/4/80 32/2/80
f 71/22/59 61/8/59 79/23/59 87/24/59
f 22/25/60 71/22/60 87/24/60 50/26/60
f 90/27/81 85/14/81 81/13/81 88/28/81
f 56/29/82 90/27/82 88/28/82 52/30/82
f 86/31/83 76/18/83 83/4/83 89/21/83
f 49/32/84 86/31/84 89/21/84 54/20/84
f 52/30/85 88/28/85 86/31/85 49/32/85
f 88/28/86 81/13/86 76/18/86 86/31/86
f 50/26/87 87/24/87 90/27/87 56/29/87
f 87/24/88 79/23/88 85/14/88 90/27/88
